<svg width="248" height="247" viewBox="0 0 248 247" fill="none" xmlns="http://www.w3.org/2000/svg">
<circle cx="123.273" cy="123.462" r="106.725" transform="rotate(-12.9729 123.273 123.462)" fill="black" stroke="black" stroke-width="8"/>
<circle cx="123.273" cy="123.462" r="104.725" transform="rotate(-12.9729 123.273 123.462)" fill="black" stroke="#FFFB00" stroke-width="4"/>
<path d="M161.385 59.8518L169.342 47.567L174.328 51.0079L165.665 62.8058L161.385 59.8518ZM159.548 67.0908C158.788 66.566 158.32 65.9362 158.144 65.2015C157.981 64.4644 158.149 63.7353 158.647 63.014C159.145 62.2928 159.764 61.8813 160.506 61.7796C161.26 61.6755 162.018 61.8858 162.778 62.4106C163.546 62.9408 164.012 63.5745 164.174 64.3116C164.342 65.0409 164.177 65.7661 163.68 66.4874C163.182 67.2086 162.56 67.624 161.813 67.7335C161.071 67.8352 160.317 67.621 159.548 67.0908Z" fill="white"/>
<path d="M134.62 54.5669L137.097 32.5083L143.047 35.017L140.649 48.2088L140.807 48.2754L149.051 37.5479L153.738 39.5237L151.791 52.968L151.949 53.0346L159.741 42.0546L165.692 44.5633L151.629 61.7378L146.521 59.5843L147.821 47.232L147.663 47.1654L139.728 56.7204L134.62 54.5669Z" fill="white"/>
<path d="M120.464 53.6042C118.54 53.4161 116.836 52.8286 115.353 51.8415C113.88 50.8553 112.767 49.512 112.015 47.8115C111.263 46.1015 111.002 44.0757 111.23 41.7342C111.461 39.3737 112.111 37.4274 113.179 35.8953C114.248 34.3631 115.6 33.2607 117.235 32.5878C118.881 31.9065 120.666 31.6598 122.59 31.8479C124.514 32.0359 126.213 32.623 127.686 33.6092C129.161 34.5859 130.273 35.9292 131.025 37.6392C131.786 39.3501 132.051 41.3858 131.821 43.7463C131.591 46.0973 130.937 48.0384 129.859 49.5696C128.792 51.0923 127.44 52.1947 125.804 52.877C124.168 53.5499 122.388 53.7922 120.464 53.6042ZM120.953 48.5988C121.911 48.6924 122.733 48.5479 123.422 48.1653C124.12 47.7742 124.678 47.1588 125.095 46.3191C125.512 45.4793 125.782 44.4291 125.905 43.1682C126.029 41.8979 125.968 40.8105 125.722 39.9059C125.476 38.9919 125.048 38.2801 124.437 37.7706C123.837 37.2526 123.058 36.9468 122.101 36.8532C121.153 36.7606 120.33 36.9098 119.631 37.3009C118.943 37.6835 118.385 38.2989 117.958 39.1472C117.541 39.9869 117.27 41.0419 117.146 42.3123C117.023 43.5731 117.084 44.6558 117.331 45.5603C117.587 46.4658 118.015 47.1776 118.615 47.6956C119.226 48.2051 120.005 48.5062 120.953 48.5988Z" fill="white"/>
<path d="M104.207 34.7562L110.168 55.193L105.56 56.5372L95.052 47.9638L94.9148 48.0038L98.0434 58.7297L92.5022 60.346L86.541 39.9092L91.2593 38.5329L101.622 47.119L101.787 47.0709L98.6659 36.3725L104.207 34.7562Z" fill="white"/>
<path d="M59.5693 54.0654L65.0436 50.6393L73.1492 55.7806L73.2945 55.6896L72.2376 46.1369L77.6877 42.726L78.8215 59.2422L82.3689 64.9102L77.5002 67.9573L73.9528 62.2893L59.5693 54.0654Z" fill="white"/>
<path d="M53.031 64.9522L56.5097 60.3461L67.3867 68.5606C68.6788 69.5364 69.5675 70.691 70.0526 72.0242C70.5302 73.3517 70.6112 74.7617 70.2957 76.2541C69.9726 77.7409 69.26 79.2139 68.1579 80.6733C67.0557 82.1327 65.8338 83.2212 64.4922 83.9387C63.1487 84.6429 61.7732 84.9469 60.3657 84.8508C58.9564 84.7413 57.6056 84.1986 56.3135 83.2228L45.4365 75.0083L48.9152 70.4021L59.4045 78.3238C59.9366 78.7257 60.4968 78.9638 61.0852 79.0381C61.666 79.1067 62.2263 79.0286 62.7662 78.8037C63.3042 78.5654 63.7713 78.1841 64.1674 77.6596C64.5692 77.1276 64.8111 76.5702 64.893 75.9875C64.9674 75.3991 64.8921 74.835 64.6672 74.2951C64.4347 73.7495 64.0524 73.2758 63.5204 72.874L53.031 64.9522Z" fill="white"/>
<path d="M54.9382 105.341L35.9561 95.7036L40.1344 87.4738C40.8674 86.03 41.6794 84.9146 42.5703 84.1278C43.4611 83.3409 44.3905 82.8781 45.3583 82.7392C46.3177 82.596 47.2772 82.768 48.2369 83.2553C48.9333 83.6088 49.4927 84.0851 49.915 84.6841C50.3373 85.2831 50.6037 85.9577 50.7141 86.7081C50.8203 87.4457 50.758 88.2206 50.5273 89.0329L50.7311 89.1363C51.1705 88.3339 51.7495 87.6985 52.468 87.2301C53.1824 86.7489 53.9742 86.4832 54.8435 86.4332C55.7086 86.3704 56.5871 86.5653 57.4789 87.0181C58.515 87.5442 59.3049 88.2817 59.8486 89.2307C60.3838 90.1754 60.6327 91.2632 60.5953 92.4941C60.5495 93.7206 60.1772 95.0218 59.4787 96.3977L54.9382 105.341ZM53.4491 98.1114L54.678 95.6909C55.1135 94.8331 55.2756 94.1035 55.1643 93.5022C55.0573 92.8924 54.6895 92.4279 54.061 92.1089C53.6109 91.8803 53.1812 91.7903 52.772 91.839C52.3542 91.8832 51.9677 92.0555 51.6123 92.3558C51.2612 92.6475 50.9541 93.0525 50.6911 93.5706L49.4233 96.0675L53.4491 98.1114ZM46.2384 94.4505L47.3121 92.3357C47.5406 91.8856 47.6732 91.4562 47.7098 91.0475C47.7422 90.6259 47.6763 90.2507 47.5122 89.9217C47.3396 89.5883 47.058 89.3225 46.6673 89.1241C46.0898 88.8309 45.5361 88.8169 45.0062 89.082C44.4807 89.3386 44.0562 89.7854 43.7328 90.4224L42.6203 92.6136L46.2384 94.4505Z" fill="white"/>
<path d="M43.9686 126.716L29.836 126.446L29.8478 120.482L43.9788 121.596L43.9686 126.716ZM50.736 124.487C50.7342 125.397 50.4889 126.116 50.0002 126.646C49.5023 127.165 48.8302 127.404 47.9837 127.363C47.1373 127.321 46.4708 127.017 45.9842 126.449C45.4885 125.871 45.2416 125.128 45.2434 124.218C45.2452 123.299 45.495 122.58 45.9929 122.06C46.4816 121.54 47.1492 121.301 47.9956 121.343C48.8421 121.384 49.5132 121.689 50.0089 122.257C50.4955 122.825 50.7378 123.568 50.736 124.487Z" fill="white"/>
<path d="M54.4019 151.871L35.4863 161.273L34.2282 154.986L46.042 150.131L46.0086 149.964L32.959 148.644L31.968 143.693L43.7357 138.328L43.7023 138.161L30.6988 137.351L29.4407 131.064L50.8057 133.902L51.8857 139.298L41.341 144.636L41.3744 144.803L53.322 146.475L54.4019 151.871Z" fill="white"/>
<path d="M61.3797 164.222C62.2827 165.931 62.7468 167.663 62.7721 169.418C62.7929 171.164 62.3322 172.794 61.3902 174.309C60.44 175.828 58.9704 177.1 56.9811 178.127C54.9758 179.162 53.071 179.631 51.2668 179.533C49.4626 179.436 47.8454 178.878 46.4152 177.859C44.9725 176.836 43.7997 175.47 42.8967 173.761C41.9937 172.052 41.5318 170.324 41.511 168.578C41.4821 166.836 41.9428 165.206 42.8929 163.687C43.8386 162.16 45.3141 160.879 47.3195 159.844C49.3167 158.813 51.2197 158.351 53.0284 158.456C54.8245 158.558 56.4417 159.116 57.8799 160.131C59.3101 161.15 60.4767 162.514 61.3797 164.222ZM57.1274 166.417C56.6781 165.567 56.113 164.953 55.432 164.576C54.7385 164.195 53.9434 164.048 53.0468 164.136C52.1502 164.223 51.1663 164.544 50.0952 165.096C49.016 165.653 48.1838 166.27 47.5985 166.947C47.0053 167.628 46.6728 168.357 46.6012 169.133C46.5171 169.905 46.6997 170.716 47.149 171.566C47.5938 172.408 48.163 173.02 48.8565 173.401C49.5375 173.778 50.3326 173.925 51.2417 173.841C52.1383 173.754 53.1262 173.431 54.2054 172.874C55.2765 172.322 56.1047 171.707 56.6899 171.03C57.2707 170.344 57.6032 169.616 57.6873 168.844C57.7589 168.068 57.5722 167.259 57.1274 166.417Z" fill="white"/>
<path d="M55.267 187.636L68.2756 172.014L71.8668 175.173L70.7896 188.429L70.8965 188.523L77.7238 180.324L82.0418 184.122L69.0332 199.744L65.3565 196.51L66.5231 183.369L66.3948 183.256L59.585 191.434L55.267 187.636Z" fill="white"/>
<path d="M95.0576 214.958L89.3356 212.157L88.9944 202.697L88.8425 202.623L81.8159 208.477L76.1192 205.689L88.6473 196.148L91.219 190.23L96.3081 192.72L93.7364 198.639L95.0576 214.958Z" fill="white"/>
<path d="M107.301 214.768L101.731 214.252L102.321 200.874C102.391 199.284 102.824 197.94 103.62 196.84C104.415 195.75 105.493 194.948 106.854 194.436C108.214 193.933 109.777 193.763 111.542 193.927C113.306 194.09 114.841 194.547 116.146 195.297C117.442 196.055 118.436 197.048 119.13 198.276C119.814 199.513 120.12 200.926 120.05 202.515L119.461 215.894L113.891 215.378L114.46 202.476C114.488 201.822 114.371 201.229 114.109 200.698C113.846 200.176 113.477 199.748 113.003 199.413C112.519 199.086 111.96 198.894 111.325 198.835C110.682 198.775 110.106 198.863 109.597 199.097C109.088 199.341 108.68 199.698 108.373 200.167C108.066 200.645 107.898 201.212 107.869 201.866L107.301 214.768Z" fill="white"/>
<path d="M138.41 192.16L141.122 213.063L132.285 213.847C130.734 213.985 129.402 213.885 128.289 213.549C127.175 213.212 126.298 212.675 125.658 211.937C125.019 211.209 124.631 210.316 124.494 209.259C124.395 208.492 124.468 207.776 124.714 207.111C124.959 206.446 125.351 205.872 125.888 205.389C126.417 204.916 127.068 204.565 127.841 204.336L127.812 204.112C126.932 204.161 126.11 204.007 125.344 203.649C124.57 203.302 123.925 202.777 123.41 202.075C122.887 201.384 122.561 200.547 122.434 199.565C122.286 198.424 122.441 197.379 122.899 196.43C123.358 195.491 124.088 194.716 125.089 194.107C126.09 193.508 127.33 193.142 128.807 193.011L138.41 192.16ZM133.47 197.167L130.87 197.398C129.949 197.479 129.28 197.723 128.862 198.129C128.435 198.536 128.267 199.086 128.356 199.778C128.421 200.273 128.584 200.68 128.847 200.997C129.11 201.324 129.459 201.558 129.892 201.699C130.317 201.841 130.807 201.888 131.363 201.838L134.045 201.601L133.47 197.167ZM134.5 205.108L132.229 205.309C131.745 205.352 131.331 205.465 130.986 205.646C130.632 205.839 130.37 206.089 130.198 206.398C130.027 206.715 129.969 207.089 130.025 207.52C130.107 208.156 130.399 208.627 130.9 208.932C131.392 209.239 131.98 209.361 132.664 209.301L135.017 209.092L134.5 205.108Z" fill="white"/>
<path d="M162.788 190.917L169.24 203.528L163.965 206.322L158.26 193.316L162.788 190.917ZM157.615 185.988C158.42 185.562 159.171 185.44 159.87 185.623C160.565 185.818 161.095 186.299 161.459 187.067C161.823 187.834 161.869 188.566 161.598 189.263C161.322 189.972 160.782 190.54 159.978 190.966C159.165 191.397 158.411 191.514 157.716 191.319C157.026 191.132 156.498 190.655 156.134 189.888C155.77 189.12 155.722 188.384 155.989 187.679C156.26 186.982 156.802 186.419 157.615 185.988Z" fill="white"/>
<path d="M180.074 169.87L197.336 182.156L192.377 186.224L182.495 178.072L182.363 178.18L187.374 190.328L183.469 193.532L173.158 185.661L173.026 185.769L178.466 197.636L173.507 201.704L165.9 181.498L170.157 178.006L179.865 184.809L179.996 184.701L175.817 173.362L180.074 169.87Z" fill="white"/>
<path d="M187.684 157.897C188.766 156.296 190.076 155.072 191.615 154.224C193.148 153.384 194.806 153.024 196.591 153.144C198.382 153.269 200.203 153.969 202.051 155.243C203.915 156.527 205.231 157.989 205.999 159.629C206.767 161.268 207.04 162.959 206.816 164.702C206.595 166.457 205.944 168.136 204.861 169.737C203.779 171.338 202.471 172.559 200.938 173.399C199.413 174.243 197.754 174.603 195.963 174.479C194.166 174.361 192.335 173.661 190.471 172.376C188.615 171.097 187.306 169.633 186.543 167.986C185.782 166.352 185.51 164.661 185.726 162.913C185.949 161.171 186.602 159.499 187.684 157.897ZM191.636 160.621C191.097 161.418 190.823 162.206 190.812 162.985C190.803 163.777 191.05 164.548 191.552 165.299C192.054 166.049 192.803 166.768 193.798 167.454C194.801 168.145 195.74 168.59 196.616 168.789C197.498 168.992 198.299 168.943 199.019 168.641C199.741 168.353 200.371 167.81 200.909 167.013C201.443 166.224 201.713 165.434 201.722 164.642C201.733 163.863 201.486 163.092 200.982 162.328C200.48 161.577 199.727 160.856 198.725 160.165C197.729 159.479 196.794 159.037 195.919 158.838C195.038 158.647 194.237 158.696 193.515 158.985C192.795 159.287 192.169 159.832 191.636 160.621Z" fill="white"/>
<path d="M211.264 152.284L191.303 148.141L192.393 143.483L204.616 138.2L204.648 138.061L194.172 135.887L195.483 130.287L215.444 134.43L214.328 139.198L202.165 144.349L202.126 144.515L212.575 146.684L211.264 152.284Z" fill="white"/>
<path d="M216.566 104.287L216.801 110.658L208.605 115.409L208.611 115.578L217.11 119.031L217.343 125.374L202.982 118.796L196.536 119.308L196.327 113.641L202.774 113.129L216.566 104.287Z" fill="white"/>
<path d="M210.603 93.5615L212.784 98.724L200.684 104.496C199.247 105.181 197.854 105.431 196.505 105.245C195.165 105.056 193.947 104.48 192.85 103.519C191.762 102.554 190.872 101.254 190.181 99.6182C189.49 97.9826 189.167 96.412 189.211 94.9065C189.268 93.4055 189.675 92.06 190.432 90.8698C191.201 89.6841 192.304 88.7484 193.741 88.0628L205.841 82.291L208.022 87.4535L196.354 93.0195C195.762 93.3019 195.293 93.684 194.948 94.1658C194.612 94.6437 194.408 95.1709 194.336 95.7474C194.277 96.3285 194.372 96.9129 194.62 97.5007C194.872 98.097 195.222 98.5647 195.67 98.9037C196.126 99.2387 196.634 99.4313 197.194 99.4816C197.762 99.5279 198.342 99.4099 198.934 99.1276L210.603 93.5615Z" fill="white"/>
<path d="M175.899 76.7161L193.085 64.4893L197.961 71.9267C198.816 73.2315 199.359 74.4549 199.589 75.5969C199.819 76.7389 199.76 77.7661 199.411 78.6785C199.069 79.5854 198.464 80.348 197.595 80.9661C196.965 81.4147 196.298 81.6869 195.594 81.7826C194.89 81.8783 194.197 81.8025 193.516 81.5552C192.848 81.3102 192.23 80.9003 191.662 80.3255L191.477 80.4568C191.937 81.2101 192.19 82.0091 192.237 82.854C192.296 83.701 192.138 84.5172 191.762 85.3024C191.398 86.0899 190.813 86.7708 190.006 87.3453C189.068 88.0127 188.071 88.3672 187.016 88.4088C185.968 88.445 184.939 88.1645 183.927 87.5674C182.923 86.9648 182.013 86.0417 181.198 84.7983L175.899 76.7161ZM182.663 78.7251L184.097 80.9126C184.605 81.6878 185.138 82.1645 185.694 82.3426C186.256 82.5283 186.821 82.4188 187.39 82.014C187.797 81.724 188.079 81.3885 188.235 81.0073C188.399 80.6207 188.441 80.2027 188.36 79.7534C188.285 79.3117 188.094 78.8568 187.787 78.3886L186.308 76.132L182.663 78.7251ZM189.191 74.0805L190.444 75.9917C190.711 76.3985 191.006 76.7116 191.33 76.9311C191.667 77.1528 192.013 77.2671 192.367 77.2741C192.729 77.2756 193.087 77.1505 193.44 76.8988C193.963 76.5268 194.241 76.0477 194.274 75.4615C194.312 74.883 194.142 74.306 193.765 73.7303L192.467 71.75L189.191 74.0805Z" fill="white"/>
<path d="M172.235 125.704L164.658 108.289L171.955 105.366L178.499 123.194L172.235 125.704ZM178.745 132.881C177.632 133.327 176.616 133.382 175.695 133.045C174.782 132.692 174.113 131.988 173.691 130.932C173.268 129.877 173.267 128.912 173.689 128.037C174.118 127.146 174.888 126.478 176.001 126.032C177.126 125.582 178.144 125.533 179.058 125.886C179.967 126.227 180.633 126.926 181.056 127.981C181.479 129.037 181.482 130.008 181.064 130.894C180.643 131.768 179.87 132.431 178.745 132.881Z" fill="#FFFB00"/>
<path d="M142.406 146.961L124.562 124.353L132.34 121.237L142.166 135.593L142.373 135.511L140.187 118.093L146.313 115.638L156.787 129.816L156.993 129.733L154.161 112.494L161.939 109.378L164.64 138.053L157.963 140.728L147.89 128.147L147.684 128.23L149.084 144.285L142.406 146.961Z" fill="#00FFF2"/>
<path d="M122.892 155.179C120.563 156.112 118.25 156.453 115.952 156.202C113.666 155.946 111.582 155.064 109.699 153.555C107.812 152.034 106.3 149.857 105.165 147.023C104.021 144.167 103.606 141.537 103.921 139.134C104.237 136.731 105.135 134.653 106.617 132.901C108.105 131.133 110.014 129.783 112.343 128.85C114.672 127.916 116.979 127.578 119.265 127.834C121.547 128.078 123.631 128.96 125.518 130.481C127.417 131.997 128.939 134.183 130.084 137.04C131.223 139.885 131.63 142.511 131.303 144.919C130.983 147.311 130.085 149.388 128.608 151.152C127.126 152.903 125.221 154.246 122.892 155.179ZM120.465 149.122C121.624 148.657 122.485 147.999 123.049 147.148C123.62 146.28 123.895 145.238 123.874 144.021C123.852 142.805 123.536 141.434 122.925 139.908C122.309 138.371 121.589 137.155 120.764 136.26C119.935 135.354 119.017 134.79 118.009 134.568C117.008 134.33 115.929 134.443 114.77 134.907C113.623 135.367 112.764 136.03 112.193 136.898C111.628 137.75 111.354 138.792 111.368 140.025C111.389 141.241 111.708 142.618 112.324 144.155C112.935 145.681 113.653 146.891 114.478 147.786C115.314 148.676 116.232 149.24 117.233 149.478C118.24 149.7 119.318 149.581 120.465 149.122Z" fill="#00FF37"/>
<path d="M97.6464 135.137L107.92 160.778L102.137 163.095L87.4873 153.347L87.3153 153.415L92.7069 166.873L85.7545 169.658L75.4814 144.017L81.4013 141.645L95.8654 151.428L96.0719 151.345L90.6941 137.922L97.6464 135.137Z" fill="#FFFB00"/>
<path d="M119.647 90.3057L127.426 87.1893L136.595 95.6184L136.801 95.5356L137.648 83.0938L145.392 79.9912L143.042 101.343L146.269 109.397L139.351 112.169L136.124 104.115L119.647 90.3057Z" fill="#00AAFF"/>
<path d="M111.284 93.6567L118.236 90.8712L124.814 107.288C125.595 109.239 125.808 111.117 125.454 112.924C125.094 114.718 124.239 116.339 122.888 117.786C121.533 119.221 119.753 120.38 117.551 121.262C115.348 122.145 113.261 122.535 111.289 122.433C109.325 122.315 107.593 121.73 106.094 120.68C104.601 119.614 103.464 118.105 102.683 116.155L96.1055 99.7378L103.058 96.9523L109.401 112.784C109.723 113.588 110.186 114.228 110.789 114.705C111.389 115.17 112.064 115.459 112.814 115.571C113.571 115.667 114.346 115.556 115.138 115.239C115.941 114.917 116.583 114.46 117.065 113.868C117.542 113.264 117.836 112.587 117.948 111.836C118.056 111.074 117.949 110.292 117.627 109.489L111.284 93.6567Z" fill="#00FFF2"/>
<path d="M83.6627 134.48L73.3896 108.838L84.5066 104.384C86.4569 103.603 88.2032 103.21 89.7454 103.204C91.2877 103.199 92.5903 103.542 93.6533 104.235C94.7117 104.916 95.5006 105.904 96.02 107.201C96.3969 108.142 96.5351 109.085 96.4347 110.03C96.3342 110.976 96.0168 111.862 95.4826 112.689C94.9552 113.499 94.2315 114.202 93.3115 114.797L93.4218 115.072C94.537 114.665 95.6454 114.541 96.7471 114.698C97.8557 114.84 98.8554 115.258 99.7462 115.953C100.644 116.632 101.334 117.574 101.817 118.778C102.378 120.178 102.517 121.573 102.236 122.964C101.95 124.344 101.262 125.618 100.172 126.787C99.0782 127.944 97.6019 128.895 95.7433 129.639L83.6627 134.48ZM88.395 126.153L91.6647 124.843C92.8234 124.379 93.6057 123.806 94.0115 123.124C94.4289 122.437 94.4674 121.67 94.1273 120.821C93.8837 120.213 93.5415 119.757 93.1007 119.454C92.6553 119.14 92.1308 118.978 91.5272 118.967C90.935 118.951 90.2891 119.083 89.5892 119.363L86.2163 120.715L88.395 126.153ZM84.4926 116.413L87.3493 115.268C87.9573 115.025 88.454 114.719 88.8394 114.352C89.2316 113.968 89.4884 113.546 89.6098 113.084C89.7266 112.611 89.6793 112.111 89.4678 111.583C89.1553 110.803 88.6271 110.316 87.8834 110.121C87.1512 109.922 86.3549 109.995 85.4944 110.339L82.5345 111.525L84.4926 116.413Z" fill="#00FF37"/>
</svg>
