<svg width="121" height="120" viewBox="0 0 121 120" fill="none" xmlns="http://www.w3.org/2000/svg">
<circle cx="60.6581" cy="60.1293" r="53.8288" transform="rotate(-12.9729 60.6581 60.1293)" fill="black" stroke="black" stroke-width="8"/>
<circle cx="60.6581" cy="60.1293" r="51.8288" transform="rotate(-12.9729 60.6581 60.1293)" fill="black" stroke="#00BFFF" stroke-width="4"/>
<g clip-path="url(#clip0_727_6523)">
<path fill-rule="evenodd" clip-rule="evenodd" d="M63.4712 29.5848C63.909 28.8921 64.5245 28.3293 65.2536 27.9552C65.9827 27.581 66.7987 27.4092 67.6168 27.4574C68.4349 27.5057 69.2251 27.7723 69.9051 28.2296C70.5851 28.6869 71.1302 29.3181 71.4835 30.0575L89.8432 68.5158C91.6111 72.2276 89.2906 76.6807 85.0837 77.1506C81.5646 77.5434 76.2842 78.05 71.3202 78.1981C68.8374 78.271 61.1237 78.3389 59.9932 75.349C59.0294 72.7905 62.1104 58.5037 63.7394 50.1511C64.3775 46.8708 62.7125 46.3959 61.6117 49.7714C58.8777 58.1529 54.2302 71.2403 52.4667 75.2418C50.9104 78.7709 49.697 80.0341 47.8163 80.9278C44.3857 82.5593 40.9824 83.7544 37.9826 84.4111C33.9295 85.2992 31.069 80.8699 33.1803 77.5276L63.4712 29.5848Z" fill="white"/>
</g>
<defs>
<clipPath id="clip0_727_6523">
<rect width="73.356" height="73.356" fill="white" transform="translate(6.13965 53.0464) rotate(-34.8811)"/>
</clipPath>
</defs>
</svg>
