<svg width="1920" height="545" viewBox="0 0 1920 545" fill="none" xmlns="http://www.w3.org/2000/svg">
<mask id="mask0_2001_209" style="mask-type:alpha" maskUnits="userSpaceOnUse" x="-17" y="0" width="1956" height="545">
<path d="M678.103 252.295C280.773 143.029 13.5417 369.329 -16.0903 432.763V543.383C49.1313 470.224 318.028 284.787 773.684 452.763C1199.73 609.822 1747.64 511.55 1937.56 456.515V2.31738C1662.76 337.612 1180.63 390.491 678.103 252.295Z" fill="white" stroke="black"/>
</mask>
<g mask="url(#mask0_2001_209)">
<path d="M1964.67 -318.744H-43.1958V1019.98H1964.67V-318.744Z" fill="black"/>
<mask id="mask1_2001_209" style="mask-type:luminance" maskUnits="userSpaceOnUse" x="-44" y="-319" width="2009" height="1339">
<path d="M-42.6958 1019.48V-318.244H1964.17V1019.48H-42.6958Z" fill="white" stroke="white"/>
</mask>
<g mask="url(#mask1_2001_209)">
<path d="M1378.99 106.732C1318.57 61.4491 1301.04 -46.2319 1356.29 -136.671C1411.51 -227.051 1539.48 -300.228 1770.09 -276.157C1885.28 -264.134 1964.21 -199.874 2006.39 -118.822C2048.57 -37.7547 2053.98 60.1038 2022.12 139.286C1990.27 218.444 1921.16 278.949 1814.23 285.382C1707.26 291.818 1562.36 244.146 1378.99 106.732Z" fill="#00B2FF" stroke="black"/>
<path d="M1784.09 175.22C1784.48 174.904 1784.48 174.904 1784.48 174.903L1784.48 174.901L1784.47 174.893L1784.45 174.859C1784.42 174.829 1784.39 174.785 1784.34 174.725C1784.24 174.607 1784.1 174.43 1783.92 174.199C1783.55 173.738 1783.02 173.059 1782.36 172.193C1781.04 170.461 1779.19 167.978 1777.1 164.979C1772.92 158.978 1767.79 150.921 1763.93 142.678C1760.06 134.413 1757.53 126.049 1758.44 119.398C1758.9 116.091 1760.21 113.221 1762.62 110.983C1765.04 108.74 1768.62 107.094 1773.68 106.314C1794.07 103.17 1815.48 106.773 1831.81 111.176C1839.97 113.376 1846.85 115.774 1851.69 117.62C1854.12 118.544 1856.03 119.329 1857.33 119.884C1857.98 120.161 1858.48 120.38 1858.82 120.53C1858.99 120.605 1859.11 120.662 1859.2 120.701L1859.3 120.745L1859.32 120.755L1859.33 120.758L1859.33 120.759C1859.33 120.759 1859.33 120.759 1859.54 120.305L1859.33 120.759L1860.17 121.148L1860.03 120.231L1822.18 -133.19L1822.04 -133.18L1822.17 -133.213C1807.13 -192.214 1823.1 -238.193 1853.13 -253.417C1868.13 -261.024 1886.73 -261.01 1906.9 -251.033C1927.08 -241.052 1948.83 -221.098 1970.06 -188.854L1970.89 -187.595L1970.98 -189.1L1970.48 -189.129C1970.98 -189.1 1970.98 -189.1 1970.98 -189.101L1970.98 -189.105L1970.98 -189.121L1970.98 -189.185C1970.99 -189.242 1970.99 -189.328 1971 -189.441C1971.01 -189.666 1971.04 -189.999 1971.07 -190.43C1971.14 -191.291 1971.24 -192.542 1971.39 -194.097C1971.7 -197.208 1972.21 -201.537 1972.99 -206.407C1974.57 -216.161 1977.27 -228.029 1981.77 -236.636C1984.02 -240.94 1986.7 -244.379 1989.86 -246.348C1993 -248.301 1996.65 -248.833 2000.95 -247.26C2005.28 -245.677 2010.28 -241.955 2016.04 -235.344C2021.8 -228.738 2028.28 -219.283 2035.58 -206.287L2036.01 -206.532L2035.58 -206.287C2042.85 -193.343 2049.82 -172.36 2055.78 -145.661C2061.73 -118.972 2066.65 -86.6073 2069.83 -50.9229C2076.18 20.448 2075.54 105.069 2062.19 184.083C2048.84 263.107 2022.78 336.458 1978.36 385.352C1933.96 434.211 1871.18 458.693 1784.2 439.933C1740.66 430.541 1708.02 419.361 1684.25 406.997C1660.47 394.633 1645.58 381.1 1637.48 367.017C1621.29 338.902 1632.03 308.336 1653.78 279.931C1675.52 251.542 1708.14 225.475 1735.36 206.495C1748.97 197.008 1761.21 189.298 1770.06 183.96C1774.48 181.29 1778.05 179.215 1780.51 177.806C1781.75 177.102 1782.7 176.565 1783.35 176.204C1783.67 176.023 1783.92 175.887 1784.08 175.796L1784.27 175.693L1784.32 175.667L1784.33 175.661C1784.33 175.659 1784.33 175.659 1784.09 175.22ZM1784.09 175.22L1784.48 174.904L1784.86 175.37L1784.33 175.659L1784.09 175.22Z" fill="#E8A02F" stroke="black"/>
<path d="M1629.09 154.545L1629.08 154.536C1628.85 153.787 1623.35 135.225 1622.55 109.526L1622.05 109.542L1622.55 109.526C1621.8 85.6651 1625.17 51.009 1645.46 21.3879L1645.46 21.3877C1669.94 -14.4013 1712.93 -34.9506 1773.32 -39.6563C1775.64 -39.8233 1777.65 -38.0981 1777.81 -35.8078C1777.98 -33.5071 1776.25 -31.4761 1773.97 -31.3092L1773.96 -31.309C1716.37 -26.8311 1675.43 -7.54177 1652.37 26.1242L1652.37 26.1243C1634.09 52.8204 1630.24 84.1608 1630.97 108.88C1631.69 133.605 1637.01 151.764 1637.12 152.148L1637.12 152.15C1637.79 154.373 1636.53 156.693 1634.32 157.364C1633.92 157.482 1633.52 157.531 1633.1 157.531H1633.08C1631.28 157.531 1629.61 156.357 1629.09 154.545Z" fill="black" stroke="black"/>
<path d="M1671.37 4.58913C1670.64 5.93712 1669.3 6.71667 1667.89 6.78482L1667.87 6.76295H1667.67C1667 6.76295 1666.3 6.5954 1665.68 6.26044C1663.65 5.16159 1662.91 2.62749 1663.98 0.590626C1664.12 0.343391 1667.1 -5.42102 1668.57 -13.9882C1670.06 -22.6112 1670.02 -34.1028 1663.99 -45.6609L1663.99 -45.6612C1662.91 -47.7186 1663.7 -50.2281 1665.76 -51.3052C1667.81 -52.3817 1670.32 -51.5937 1671.4 -49.5351L1671.4 -49.5351C1685.62 -22.3649 1671.96 3.4978 1671.37 4.58913Z" fill="black" stroke="black"/>
<path d="M1636.67 59.3493C1636.5 61.3598 1634.91 62.9041 1632.99 63.1234H1632.54H1632.54H1632.54H1632.54H1632.54H1632.54H1632.54H1632.54H1632.53H1632.53H1632.53H1632.53H1632.53H1632.53H1632.53H1632.53H1632.53H1632.53H1632.53H1632.53H1632.53H1632.52H1632.52H1632.52H1632.52H1632.52H1632.52H1632.52H1632.52H1632.52H1632.52H1632.52H1632.52H1632.51H1632.51H1632.51H1632.51H1632.51H1632.51H1632.51H1632.51H1632.51H1632.51H1632.51H1632.51H1632.51H1632.5H1632.5H1632.5H1632.5H1632.5H1632.5H1632.5H1632.5H1632.5H1632.5H1632.5H1632.5H1632.49H1632.49H1632.49H1632.49H1632.49H1632.49H1632.49H1632.49H1632.49H1632.49H1632.49H1632.49H1632.48H1632.48H1632.48H1632.48H1632.48H1632.48H1632.48H1632.48H1632.48H1632.48H1632.48H1632.48H1632.47H1632.47H1632.47H1632.47H1632.47H1632.47H1632.47H1632.47H1632.47H1632.47H1632.47H1632.47H1632.46H1632.46H1632.46H1632.46H1632.46H1632.46H1632.46H1632.46H1632.46H1632.46H1632.46H1632.46H1632.45H1632.45H1632.45H1632.45H1632.45H1632.45H1632.45H1632.45H1632.45H1632.45H1632.45H1632.45H1632.44H1632.44H1632.44H1632.44H1632.44H1632.44H1632.44H1632.44H1632.44H1632.44H1632.44H1632.44H1632.43H1632.43H1632.43H1632.43H1632.43H1632.43H1632.43H1632.43H1632.43H1632.43H1632.43H1632.43H1632.42H1632.42H1632.42H1632.42H1632.42H1632.42H1632.42H1632.42H1632.42H1632.42H1632.42H1632.42H1632.41H1632.41H1632.41H1632.41H1632.41H1632.41H1632.41H1632.41H1632.41H1632.41H1632.41H1632.41H1632.4H1632.4H1632.4H1632.4H1632.4H1632.4H1632.4H1632.4H1632.4H1632.4H1632.4H1632.39H1632.39H1632.39H1632.39H1632.39H1632.39H1632.39H1632.39H1632.39H1632.39H1632.39H1632.39H1632.38H1632.38H1632.38H1632.38H1632.38H1632.38H1632.38H1632.38H1632.38H1632.38H1632.38H1632.38H1632.37H1632.37H1632.37H1632.37H1632.37H1632.37H1632.37H1632.37H1632.37H1632.37H1632.37H1632.36H1632.36H1632.36H1632.36H1632.36H1632.36H1632.36H1632.36H1632.36H1632.36H1632.36H1632.36H1632.35H1632.35H1632.35H1632.35H1632.35H1632.35H1632.35H1632.35H1632.35H1632.35H1632.35H1632.34H1632.34H1632.34H1632.34H1632.34H1632.34H1632.34H1632.34H1632.34H1632.34H1632.34H1632.34H1632.33H1632.33H1632.33H1632.33H1632.33H1632.33H1632.33H1632.33H1632.33H1632.33H1632.33H1632.33H1632.32H1632.32H1632.32H1632.32H1632.32H1632.32H1632.32H1632.32H1632.32H1632.32H1632.32H1632.31H1632.31H1632.31H1632.31H1632.31H1632.31H1632.31H1632.31H1632.31H1632.31H1632.31H1632.31H1632.3H1632.3H1632.3H1632.3H1632.3H1632.3H1632.3H1632.3H1632.3H1632.3H1632.3H1632.29H1632.29H1632.29H1632.29H1632.29H1632.29H1632.29H1632.29H1632.29H1632.29H1632.29H1632.29H1632.28H1632.28H1632.28H1632.28H1632.28H1632.28H1632.28H1632.28H1632.28H1632.28H1632.28H1632.28H1632.27H1632.27H1632.27H1632.27H1632.27H1632.27H1632.27H1632.27H1632.27H1632.27H1632.27H1632.26H1632.26H1632.26H1632.26H1632.26H1632.26H1632.26H1632.26H1632.26H1632.26H1632.26H1632.26H1632.25H1632.25H1632.25H1632.25H1632.25H1632.25H1632.25H1632.25H1632.25H1632.25H1632.25H1632.25H1632.24H1632.24H1632.24H1632.24H1632.24H1632.24H1632.24H1632.24H1632.24H1632.24H1632.24H1632.23H1632.23H1632.23H1632.23H1632.23H1632.23H1632.23H1632.23H1632.23H1632.23H1632.23H1632.23H1632.22H1632.22H1632.22H1632.22H1632.22H1632.22H1632.22H1632.22H1632.22H1632.22H1632.22H1632.22H1632.21H1632.21H1632.21H1632.21H1632.21H1632.21H1632.21H1632.21H1632.21H1632.21H1632.21H1632.21H1632.2H1632.2H1632.2H1632.2H1632.2H1632.2H1632.2H1632.2H1632.2H1632.2H1632.2H1632.2H1632.19H1632.19H1632.19H1632.19H1632.19H1632.19H1632.19H1632.19H1632.19H1632.19H1632.19H1632.19H1632.18H1632.18H1632.18H1632.18H1632.18H1632.18H1632.18H1632.18H1632.18H1632.18H1632.18H1632.18H1632.17H1632.17H1632.17H1632.17H1632.17H1632.17H1632.17H1632.17H1632.17H1632.17H1632.17H1632.17H1632.16H1632.16H1632.16H1632.16H1632.16H1632.16H1632.16H1632.16H1632.16H1632.16H1632.16H1632.16H1632.15H1632.15H1632.15H1632.15H1632.15H1632.15H1632.15H1632.15H1632.15H1632.15H1632.15H1632.15H1632.15H1632.14H1632.14H1632.14H1632.14H1632.14H1632.14H1632.14H1632.14H1632.14H1632.14H1632.14C1629.85 62.8969 1628.16 60.8684 1628.35 58.5785C1628.38 58.2336 1629.35 46.3616 1627.32 34.0595C1626.29 27.9035 1624.51 21.6016 1621.46 16.577C1618.39 11.5418 1614.03 7.76368 1607.86 6.74297C1605.59 6.35944 1604.03 4.2046 1604.42 1.93751C1604.8 -0.337821 1606.95 -1.88986 1609.22 -1.50801L1609.22 -1.50778C1625.15 1.12824 1632.11 15.6004 1635.03 29.9504C1637.94 44.2662 1636.78 58.2114 1636.67 59.3467L1636.67 59.3493Z" fill="black" stroke="black"/>
<path d="M1587.94 82.1789L1587.94 82.1786C1585.72 81.5576 1584.43 79.2383 1585.05 77.0115C1585.67 74.7902 1587.99 73.4963 1590.21 74.1185C1604.89 78.2595 1616.53 87.4384 1623.94 100.682C1629.45 110.58 1630.69 119.296 1630.76 119.752L1630.76 119.756C1630.76 119.757 1630.76 119.758 1630.76 119.758C1631.07 122.051 1629.45 124.154 1627.15 124.441C1626.93 124.469 1626.75 124.491 1626.6 124.491H1626.13C1624.28 124.279 1622.73 122.826 1622.46 120.882C1622.29 119.603 1617.94 90.6186 1587.94 82.1789Z" fill="black" stroke="black"/>
<path d="M684.299 36.1036C808.674 160.493 808.674 362.168 684.299 486.558C559.924 610.947 358.272 610.947 233.897 486.558C109.521 362.168 109.521 160.493 233.897 36.1036C358.272 -88.2858 559.924 -88.2858 684.299 36.1036Z" fill="black" stroke="black"/>
<path d="M-106.672 -40.1193C-132.871 -83.3521 -136.266 -116.578 -125.586 -139.325C-114.91 -162.064 -90.0707 -174.532 -59.3281 -176.035C2.15674 -179.04 86.8344 -138.123 126.963 -48.6785C129.463 -43.105 132.04 -37.5339 134.643 -31.9066C147.737 -3.60353 161.489 26.1227 169.352 64.7474C178.775 111.039 179.739 170.132 160.877 254.819C142.025 339.461 99.5443 389.24 55.5731 405.33C33.5911 413.373 11.2242 413.006 -8.79898 404.372C-28.8238 395.736 -46.5415 378.816 -59.187 353.689C-84.8358 302.744 -77.4313 254.617 -69.3587 202.147C-68.1314 194.17 -66.8887 186.093 -65.7443 177.89C-57.0755 115.751 -54.1165 46.607 -106.672 -40.1193Z" fill="#E8A02F" stroke="black"/>
<path d="M412.274 -330.641C412.295 -330.435 412.325 -330.158 412.361 -329.812C412.449 -328.97 412.58 -327.719 412.747 -326.082C413.083 -322.809 413.566 -317.996 414.161 -311.836C415.351 -299.516 416.983 -281.81 418.757 -260.266C422.303 -217.178 426.411 -158.74 428.658 -97.3371C430.905 -35.9323 431.29 28.4261 427.392 83.3582C425.444 110.824 422.425 135.924 418.037 157.115C413.646 178.314 407.892 195.562 400.493 207.351C378.5 242.406 354.184 275.029 332.099 304.256C330.142 306.846 328.203 309.41 326.284 311.946C306.555 338.02 289.002 361.218 277.103 380.776C270.575 391.507 265.731 401.169 263.166 409.631C260.602 418.089 260.295 425.409 262.929 431.409C265.569 437.423 271.114 442.003 280.016 445.076C288.911 448.147 301.206 449.731 317.443 449.731C349.69 449.731 381.649 467.292 408.999 493.727C436.342 520.155 459.023 555.401 472.71 590.648C486.404 625.909 491.066 661.088 482.485 687.411C478.198 700.561 470.61 711.496 459.189 719.15C447.765 726.806 432.467 731.203 412.723 731.203C333.503 731.203 246.929 716.738 176.911 661.632C106.906 606.537 53.3645 510.745 40.3477 347.903C27.3256 184.994 36.0262 15.3187 90.1923 -113.608C117.272 -178.064 155.708 -232.316 208.456 -270.455C261.108 -308.523 328.052 -330.563 412.274 -330.641Z" fill="#FFF700" stroke="black"/>
<path d="M228.651 261.327C228.651 340.609 175.334 404.714 109.75 404.714C44.1657 404.714 -9.15137 340.609 -9.15137 261.327C-9.15137 182.045 44.1657 117.94 109.75 117.94C175.334 117.94 228.651 182.045 228.651 261.327Z" fill="#FF8027" stroke="black"/>
<path d="M80.9921 1041.26C0.64283 1009.82 -47.5598 961.479 -67.7098 907.128C-87.8602 852.775 -79.9879 792.328 -48.0227 736.607C15.9113 625.157 176.227 532.659 401.074 546.091C507.098 552.429 586.607 566.897 643.955 587.105C701.309 607.316 736.439 633.246 753.795 662.466C771.137 691.662 770.783 724.231 756.974 757.862C743.159 791.507 715.884 826.186 679.438 859.517C606.551 926.176 497.099 987.341 385.761 1023.97C274.405 1060.61 161.277 1072.67 80.9921 1041.26Z" fill="#00B2FF" stroke="black"/>
<path d="M1358.59 507.84L1358.54 508.338L1358.67 508.351L1358.79 508.298L1358.59 507.84ZM1358.59 507.84C1358.79 508.298 1358.79 508.297 1358.79 508.296L1358.81 508.291L1358.86 508.269L1359.05 508.181C1359.14 508.145 1359.24 508.1 1359.36 508.047C1359.5 507.987 1359.66 507.917 1359.84 507.837C1360.54 507.533 1361.58 507.083 1362.94 506.5C1365.66 505.334 1369.66 503.633 1374.8 501.495C1385.08 497.219 1399.9 491.195 1418.07 484.206C1454.42 470.228 1504.17 452.389 1557.79 436.943C1611.4 421.497 1668.87 408.45 1720.66 404.047C1772.46 399.643 1818.48 403.9 1849.29 422.962L1849.55 422.537L1849.29 422.962C1856.72 427.558 1864.49 432.261 1872.49 437.102C1897.84 452.445 1925.48 469.171 1951.76 488.264C1986.32 513.379 2018.49 542.558 2039.94 577.998C2061.38 613.424 2072.12 655.122 2063.81 705.314C2055.51 755.52 2028.14 814.26 1973.3 883.74C1891.55 987.307 1804.31 1037.48 1718.25 1051.56C1632.19 1065.64 1547.25 1043.64 1470.11 1002.73C1392.97 961.831 1323.66 902.037 1268.87 840.583C1214.08 779.126 1173.83 716.039 1154.81 668.57C1135.8 621.119 1139.08 587.473 1154.54 563.653C1170.01 539.804 1197.78 525.678 1228.03 517.463C1258.26 509.251 1290.89 506.967 1315.97 506.739C1328.5 506.625 1339.15 507.025 1346.66 507.454C1350.41 507.668 1353.38 507.889 1355.42 508.056C1356.43 508.14 1357.21 508.211 1357.74 508.26C1358 508.285 1358.2 508.304 1358.34 508.317L1358.49 508.333L1358.52 508.336L1358.53 508.337C1358.53 508.338 1358.54 508.338 1358.59 507.84Z" fill="#FCF6E1" stroke="black"/>
<path d="M277.017 595.893L277.116 595.927L277.22 595.918L378.095 587.538C479.958 579.084 561.694 499.888 573.367 398.309L611.886 62.8111C674.532 -156.32 887.551 -297.09 1113.67 -268.769L1113.68 -268.768L1113.69 -268.767L1139.47 -266.277L1139.52 -266.775L1139.47 -266.277C1246.49 -255.977 1307.64 -139.096 1255.11 -45.2988L798.921 769.13L799.357 769.375L798.921 769.13C741.407 871.961 615.214 914.36 507.293 867.099C394.346 817.647 251.045 753.578 134.119 697.031C75.6545 668.757 23.7924 642.367 -14.382 620.628C-33.4705 609.757 -49.126 600.055 -60.4705 591.866C-66.1431 587.771 -70.7281 584.062 -74.1226 580.78C-77.5277 577.487 -79.6927 574.665 -80.5842 572.348C-91.612 543.683 -87.0146 520.544 -79.6729 504.569C-75.9999 496.576 -71.6378 490.373 -68.1952 486.17C-66.4742 484.069 -64.9837 482.469 -63.9254 481.395C-63.3962 480.858 -62.9752 480.453 -62.6875 480.183C-62.5996 480.101 -62.5242 480.031 -62.462 479.974L277.017 595.893Z" fill="#E8A02F" stroke="black"/>
<path d="M44.1747 452.561L116.174 539.933L22.08 509.545C22.0494 509.46 22.0111 509.352 21.9659 509.223C21.8378 508.857 21.6547 508.316 21.4362 507.625C20.999 506.243 20.42 504.257 19.8549 501.85C18.7237 497.033 17.6519 490.545 17.8742 483.834C18.0965 477.12 19.6123 470.221 23.62 464.542C27.5809 458.93 34.0121 454.459 44.1747 452.561Z" fill="#E8A02F" stroke="black"/>
<path d="M-13.6467 494.042L-13.6464 494.042C-12.5214 492.989 -10.8945 492.631 -9.43913 493.132L-9.43795 493.133L161.23 551.421L161.231 551.421C163.405 552.162 164.578 554.555 163.837 556.731C163.096 558.905 160.704 560.078 158.528 559.337L-9.35574 502.013L-9.65868 501.909L-9.87942 502.141C-13.6293 506.08 -22.0734 515.579 -29.0592 528.147C-36.0419 540.71 -41.5962 556.391 -39.4886 572.673L-39.4886 572.673C-36.6752 594.371 -20.7754 613.198 7.53779 628.631L7.5391 628.632C9.56989 629.731 10.3116 632.291 9.21254 634.298C8.44666 635.685 7.01185 636.475 5.52829 636.475C4.86287 636.475 4.16687 636.308 3.5142 635.971C-27.461 619.065 -44.6826 598.108 -47.8133 573.696L-48.3092 573.76L-47.8133 573.696C-50.4962 552.788 -42.3889 533.268 -33.3644 518.751C-24.3439 504.24 -14.4456 494.789 -13.6467 494.042Z" fill="black" stroke="black"/>
<path d="M935.431 416.769L935.432 416.76C819.847 378.718 735.068 309.427 692.636 247.867C671.411 217.074 660.827 188.282 662.198 166.336C662.883 155.377 666.548 146.142 673.34 139.195C680.134 132.245 690.103 127.54 703.475 125.727C748.95 119.55 791.839 130.859 825.775 139.807C831.906 141.424 837.745 142.964 843.254 144.309C852.246 146.505 860.369 148.186 867.444 148.829C874.513 149.471 880.584 149.083 885.445 147.1C890.331 145.106 893.956 141.515 896.14 135.848C898.315 130.205 899.056 122.518 898.241 112.313C896.717 93.2524 892.596 72.06 888.368 50.3135C888.076 48.8127 887.783 47.3092 887.491 45.8036C882.965 22.4677 878.51 -1.38602 877.142 -23.8994C875.774 -46.4144 877.497 -67.541 885.291 -85.435C893.077 -103.31 906.938 -117.997 929.927 -127.621C952.712 -137.159 973.458 -129.947 994.061 -117.099C1003.41 -111.268 1012.7 -104.294 1022.13 -97.2199C1023.09 -96.4983 1024.05 -95.7757 1025.02 -95.0533C1035.43 -87.2543 1046.02 -79.4685 1056.99 -73.1363C1078.95 -60.4653 1102.53 -53.5786 1129.46 -64.03C1156.35 -74.4645 1186.48 -102.145 1221.67 -158.313C1239.25 -186.361 1254.96 -203.386 1268.89 -211.562C1275.84 -215.646 1282.34 -217.512 1288.4 -217.458C1294.45 -217.403 1300.1 -215.43 1305.38 -211.774C1315.94 -204.446 1324.95 -190.367 1332.47 -171.517C1339.99 -152.681 1346 -129.152 1350.59 -103.009C1359.77 -50.7241 1363.26 11.9496 1361.89 68.2835C1360.52 124.637 1354.28 174.572 1344.01 201.414C1338.85 214.9 1334.28 230.261 1329.53 246.562C1329.12 247.939 1328.72 249.323 1328.32 250.714C1323.92 265.785 1319.32 281.586 1313.9 297.428C1302.07 332.036 1286.38 366.787 1260.64 394.427C1209.22 449.646 1117.47 476.682 935.431 416.769Z" fill="black" stroke="black"/>
<path d="M966.606 30.8681C966.198 31.413 965.862 31.8583 965.602 32.2018C963.013 19.6331 963.614 3.98367 966.691 -13.8353C969.854 -32.1511 975.628 -52.7246 983.206 -74.5428C998.364 -118.179 1020.73 -166.753 1043.82 -212.132C1066.9 -257.509 1090.71 -299.679 1108.74 -330.506C1117.75 -345.919 1125.33 -358.495 1130.65 -367.219C1133.31 -371.58 1135.4 -374.978 1136.83 -377.286C1137.22 -377.915 1137.56 -378.463 1137.85 -378.927C1124.78 -268.178 1081.8 -165.494 1041.95 -90.3302C1021.9 -52.5016 1002.65 -21.6499 988.405 -0.256561C981.285 10.44 975.419 18.7717 971.333 24.4283C969.29 27.2567 967.692 29.4162 966.606 30.8681Z" fill="#00B2FF" stroke="black"/>
</g>
<path d="M1055.72 644.471L1056.12 644.775L1056.2 644.67L1056.22 644.538L1055.72 644.471ZM1055.72 644.471C1056.22 644.538 1056.22 644.537 1056.22 644.534L1056.22 644.52L1056.23 644.466L1056.26 644.251C1056.28 644.06 1056.32 643.774 1056.37 643.398C1056.48 642.644 1056.64 641.524 1056.85 640.061C1057.28 637.133 1057.92 632.831 1058.78 627.331C1060.5 616.332 1063.11 600.545 1066.64 581.395C1073.71 543.095 1084.48 491.347 1099.32 437.553C1114.15 383.756 1133.04 327.93 1156.34 281.465C1179.64 234.981 1207.31 197.954 1239.65 181.637C1247.45 177.705 1255.51 173.536 1263.81 169.246C1290.14 155.64 1318.84 140.806 1348.85 128.368C1388.32 112.011 1430 99.8229 1471.42 100.045C1512.83 100.267 1554 112.889 1592.46 146.187C1630.93 179.495 1666.72 233.514 1697.31 316.575C1742.92 440.388 1740.12 541.001 1707.18 621.747C1674.23 702.5 1611.11 763.446 1535.94 807.868C1460.77 852.29 1373.59 880.17 1292.57 894.798C1211.55 909.427 1136.74 910.795 1086.33 902.219C1035.94 893.648 1008.97 873.28 996.731 847.654C984.482 821.997 986.942 790.936 995.735 760.85C1004.52 730.775 1019.62 701.757 1032.52 680.248C1038.97 669.496 1044.87 660.625 1049.16 654.443C1051.31 651.353 1053.05 648.934 1054.25 647.289C1054.85 646.467 1055.32 645.838 1055.64 645.414C1055.79 645.203 1055.92 645.043 1056 644.936L1056.09 644.815L1056.11 644.785L1056.12 644.777C1056.12 644.776 1056.12 644.775 1055.72 644.471Z" fill="#FFF700" stroke="black"/>
<path d="M1313.88 735.118L1086.68 771.105L1033.73 436.596C995.835 197.316 1159.09 -27.3609 1398.34 -65.2572L1399.31 -65.4109L1398.93 -65.7867C1416.57 -84.3165 1431.55 -101.345 1444.4 -116.126C1446.44 -118.476 1448.43 -120.769 1450.37 -123.002C1460.69 -134.907 1469.54 -145.105 1477.22 -153.157C1486.37 -162.733 1493.82 -169.205 1500.13 -171.919C1503.26 -173.27 1506.08 -173.673 1508.67 -173.094C1511.26 -172.515 1513.68 -170.941 1515.99 -168.215C1520.65 -162.738 1524.78 -152.723 1528.88 -137.31C1532.98 -121.919 1537.04 -101.223 1541.57 -74.4521C1546.43 -45.7876 1551.83 -10.1837 1558.43 33.2967C1564.16 71.0379 1570.79 114.714 1578.74 164.937C1620.29 427.422 1620.76 430.349 1621.37 434.169C1621.77 436.64 1622.22 439.484 1633.89 513.193C1641.32 560.059 1639.22 595.062 1628.41 621.78C1617.61 648.479 1598.08 666.966 1570.48 680.755C1542.86 694.553 1507.2 703.637 1464.17 711.526C1437.03 716.502 1406.99 720.998 1374.22 725.904C1355.03 728.775 1334.91 731.787 1313.88 735.118Z" fill="#FF8027" stroke="black"/>
<path d="M1548.04 203.527L1192.08 453.54C1192.19 453.081 1192.35 452.503 1192.53 451.812C1193.07 449.838 1193.89 446.942 1195.05 443.262C1197.36 435.903 1200.98 425.407 1206.26 412.871C1216.81 387.798 1233.93 354.572 1260.26 321.954C1312.72 256.944 1401.72 194.328 1548.04 203.527Z" fill="#FCF6E1" stroke="black"/>
<path d="M1404.21 340.526C1404.21 362.174 1400.38 381.749 1394.2 395.893C1391.1 402.966 1387.44 408.658 1383.39 412.575C1379.34 416.49 1374.94 418.61 1370.37 418.61C1365.79 418.61 1361.39 416.49 1357.34 412.575C1353.3 408.658 1349.63 402.966 1346.54 395.893C1340.35 381.749 1336.52 362.174 1336.52 340.526C1336.52 318.878 1340.35 299.304 1346.54 285.16C1349.63 278.087 1353.3 272.395 1357.34 268.478C1361.39 264.563 1365.79 262.443 1370.37 262.443C1374.94 262.443 1379.34 264.563 1383.39 268.478C1387.44 272.395 1391.1 278.087 1394.2 285.16C1400.38 299.304 1404.21 318.878 1404.21 340.526Z" fill="black" stroke="black"/>
<path d="M1331.75 130.192C1315.46 80.0709 1310.15 19.6883 1313.44 -24.7155C1315.11 -47.1635 1318.96 -65.4603 1324.66 -76.2814C1327.51 -81.6968 1330.78 -85.1521 1334.38 -86.3919C1337.94 -87.6184 1341.97 -86.7221 1346.49 -83.0861C1350.98 -79.48 1354.16 -73.4566 1356.26 -65.5895C1358.35 -57.73 1359.34 -48.0885 1359.5 -37.319C1359.82 -15.7815 1356.8 10.1839 1352.62 35.2475C1348.44 60.3065 1343.11 84.4434 1338.83 102.317C1336.69 111.253 1334.81 118.623 1333.46 123.758C1332.79 126.326 1332.25 128.334 1331.88 129.701C1331.83 129.875 1331.79 130.039 1331.75 130.192Z" fill="#FCF6E1" stroke="black"/>
<path d="M1281.76 151.789C1245.95 113.115 1215.82 60.5198 1200.2 18.8283C1192.3 -2.24842 1188.13 -20.4757 1188.76 -32.6886C1189.08 -38.8004 1190.6 -43.3072 1193.35 -45.9422C1196.07 -48.5491 1200.1 -49.4269 1205.74 -48.0231C1211.32 -46.6309 1216.73 -42.4965 1221.93 -36.233C1227.13 -29.9757 1232.07 -21.6396 1236.73 -11.9292C1246.05 7.49046 1254.19 32.3313 1260.91 56.8379C1267.62 81.34 1272.9 105.488 1276.51 123.511C1278.31 132.523 1279.69 140.002 1280.62 145.229C1281.09 147.842 1281.44 149.891 1281.68 151.287C1281.71 151.465 1281.74 151.633 1281.76 151.789Z" fill="#FCF6E1" stroke="black"/>
<path d="M1245.18 201.785C1194.24 188.256 1140.66 159.925 1105.16 133.053C1087.21 119.468 1073.94 106.295 1067.94 95.6351C1064.94 90.3003 1063.81 85.6808 1064.73 81.9849C1065.63 78.3284 1068.57 75.4277 1074.08 73.6031C1079.55 71.7936 1086.33 72.393 1094.08 74.9048C1101.81 77.4142 1110.45 81.8139 1119.58 87.5274C1137.84 98.9537 1158 115.59 1176.78 132.707C1195.55 149.82 1212.93 167.4 1225.61 180.702C1231.96 187.353 1237.12 192.934 1240.7 196.851C1242.5 198.81 1243.89 200.353 1244.84 201.407C1244.96 201.541 1245.07 201.667 1245.18 201.785Z" fill="#FCF6E1" stroke="black"/>
<path d="M864.386 168.678H865.863H880.904C1113.98 168.678 1302.94 357.648 1302.97 590.746L1302.96 590.77L1302.93 590.963L1302.8 591.725C1302.68 592.398 1302.51 593.397 1302.29 594.699C1301.85 597.304 1301.19 601.125 1300.36 605.989C1298.68 615.715 1296.27 629.61 1293.34 646.284C1287.46 679.632 1279.48 724.096 1271.05 768.559C1262.62 813.023 1253.74 857.481 1246.07 890.821C1242.23 907.492 1238.7 921.373 1235.67 931.081C1234.16 935.939 1232.78 939.733 1231.56 942.306C1230.95 943.595 1230.39 944.554 1229.89 945.183C1229.37 945.842 1229 946.015 1228.8 946.015C1207.02 946.015 1186.77 946.197 1167.94 946.365C1136.93 946.643 1109.78 946.886 1086.08 946.226C1048 945.166 1018.91 941.772 997.03 932.48C975.191 923.206 960.519 908.044 951.29 883.356C942.049 858.634 938.266 824.357 938.266 776.872C938.266 753.084 934.886 736.511 928.926 724.895C922.955 713.258 914.412 706.629 904.18 702.704C893.972 698.79 882.085 697.568 869.425 696.715C867.172 696.563 864.894 696.423 862.596 696.281C851.957 695.626 840.883 694.944 829.805 692.957C816.345 690.542 802.91 686.203 790.323 677.661C777.737 669.119 765.971 656.357 755.875 637.057C735.673 598.439 722.167 533.668 722.167 424.277C722.167 373.455 721.883 329.301 721.638 291.142C721.355 247.138 721.124 211.109 721.438 182.025C721.731 154.874 722.499 133.799 724.142 117.957C725.787 102.092 728.304 91.5544 732.043 85.4173C733.903 82.3627 736.049 80.4294 738.513 79.4535C740.979 78.477 743.827 78.4342 747.14 79.2777C753.793 80.9721 762.165 86.2002 772.696 94.2281C781.552 100.979 791.886 109.67 803.949 119.816C806.209 121.717 808.531 123.669 810.914 125.669C826.013 138.339 843.603 152.919 864.082 168.576L864.359 168.213V168.678H864.386Z" fill="#00B2FF" stroke="black"/>
<path d="M1045.99 456.058C1045.99 477.706 1042.15 497.281 1035.97 511.425C1032.88 518.498 1029.21 524.19 1025.16 528.107C1021.11 532.022 1016.71 534.142 1012.14 534.142C1007.56 534.142 1003.16 532.022 999.116 528.107C995.068 524.19 991.4 518.498 988.308 511.425C982.126 497.281 978.29 477.706 978.29 456.058C978.29 434.411 982.126 414.836 988.308 400.692C991.4 393.619 995.068 387.927 999.116 384.01C1003.16 380.095 1007.56 377.975 1012.14 377.975C1016.71 377.975 1021.11 380.095 1025.16 384.01C1029.21 387.927 1032.88 393.619 1035.97 400.692C1042.15 414.836 1045.99 434.411 1045.99 456.058Z" fill="black" stroke="black"/>
<path d="M1443.9 374.841L1904.96 742.846C1904.63 743.052 1904.16 743.34 1903.56 743.702C1902.24 744.493 1900.27 745.636 1897.71 747.041C1892.58 749.85 1885.06 753.707 1875.46 757.888C1856.27 766.252 1828.82 775.915 1795.78 781.113C1729.7 791.508 1641.25 784.049 1551.73 712.597C1462.22 641.144 1435.33 556.536 1430.81 489.791C1428.55 456.413 1431.88 427.499 1435.78 406.931C1437.73 396.647 1439.82 388.451 1441.42 382.828C1442.23 380.017 1442.9 377.849 1443.38 376.385C1443.6 375.726 1443.77 375.209 1443.9 374.841Z" fill="#00B2FF" stroke="black"/>
<path d="M1443.97 374.385L1443.99 374.373C1444.06 374.334 1444.17 374.276 1444.32 374.199C1444.61 374.046 1445.04 373.82 1445.62 373.53C1446.77 372.952 1448.48 372.12 1450.73 371.112C1455.22 369.095 1461.84 366.371 1470.35 363.548C1487.36 357.901 1511.92 351.858 1542.07 350.279C1602.36 347.123 1685.06 361.815 1774.6 433.289C1864.14 504.763 1896.81 582.151 1907.11 641.648C1912.26 671.402 1911.81 696.689 1910.08 714.534C1909.22 723.457 1908.03 730.518 1907.06 735.346C1906.58 737.759 1906.15 739.615 1905.84 740.865C1905.68 741.491 1905.56 741.965 1905.47 742.281C1905.43 742.44 1905.4 742.559 1905.38 742.638L1905.37 742.661C1898.44 751.263 1885.29 753.315 1867.41 749.921C1849.51 746.524 1827.07 737.702 1801.86 724.87C1751.47 699.208 1690.17 657.569 1632.42 611.469C1574.66 565.369 1520.47 514.828 1484.27 471.376C1466.17 449.647 1452.59 429.715 1445.31 413.015C1438.03 396.33 1437.12 383.054 1443.97 374.385Z" fill="#0059FF" stroke="black"/>
<path d="M1762.63 674.178C1762.62 674.229 1762.61 674.271 1762.6 674.305C1759.37 678.266 1753.23 679.262 1744.72 677.649C1736.19 676.032 1725.48 671.826 1713.43 665.692C1689.34 653.429 1660.03 633.522 1632.41 611.476C1604.79 589.429 1578.88 565.263 1561.58 544.494C1552.93 534.105 1546.45 524.591 1542.98 516.635C1539.53 508.711 1539.13 502.512 1542.26 498.483L1542.26 498.478C1542.3 498.46 1542.35 498.432 1542.42 498.396C1542.55 498.324 1542.76 498.216 1543.03 498.079C1543.58 497.803 1544.4 497.407 1545.47 496.926C1547.61 495.964 1550.77 494.664 1554.83 493.316C1562.95 490.619 1574.67 487.732 1589.06 486.977C1617.84 485.467 1657.33 492.475 1700.12 526.625C1742.91 560.776 1758.5 597.74 1763.42 626.145C1765.87 640.353 1765.66 652.427 1764.83 660.946C1764.42 665.205 1763.85 668.574 1763.39 670.876C1763.16 672.027 1762.95 672.911 1762.81 673.506C1762.73 673.803 1762.67 674.028 1762.63 674.178Z" fill="#00B2FF" stroke="black"/>
<path d="M1904.35 744.707C1904.24 744.876 1904.13 745.053 1904 745.237C1902.98 746.727 1901.23 748.655 1898.36 750.36C1892.6 753.769 1882.25 756.329 1863.92 752.586C1827.25 745.094 1758.9 712.404 1632.4 611.442C1505.89 510.48 1458.86 451.077 1443.42 416.969C1435.71 399.928 1435.91 389.258 1437.96 382.89C1438.98 379.704 1440.48 377.574 1441.7 376.245C1441.85 376.081 1442 375.929 1442.14 375.789C1441.49 378.097 1441.98 381.075 1443.35 384.554C1445.2 389.264 1448.75 395.076 1453.75 401.802C1463.75 415.259 1479.6 432.473 1499.5 451.996C1539.29 491.048 1595.3 539.398 1653.08 585.516C1710.86 631.635 1770.42 675.533 1817.32 705.679C1840.77 720.749 1861.07 732.394 1876.41 739.159C1884.07 742.539 1890.53 744.714 1895.53 745.479C1899.23 746.043 1902.24 745.853 1904.35 744.707Z" fill="black" stroke="black"/>
<path d="M1915.63 98.537C1937.03 151.647 1911.33 212.052 1858.22 233.456C1805.12 254.86 1744.72 229.157 1723.32 176.047C1701.92 122.937 1727.62 62.532 1780.72 41.1281C1833.83 19.7242 1894.23 45.4269 1915.63 98.537Z" fill="#FCF6E1" stroke="black"/>
<path d="M1923.65 141.547C1921.33 141.547 1919.47 139.682 1919.47 137.361C1919.47 82.2238 1874.62 37.3667 1819.49 37.3667C1764.35 37.3667 1719.5 82.2238 1719.5 137.361C1719.5 139.682 1717.64 141.547 1715.32 141.547C1713 141.547 1711.13 139.682 1711.13 137.361C1711.13 77.6085 1759.74 28.9956 1819.49 28.9956C1879.23 28.9956 1927.84 77.6085 1927.84 137.361C1927.84 139.682 1925.97 141.547 1923.65 141.547Z" fill="black" stroke="black"/>
<path d="M1885.03 137.361C1885.03 173.565 1855.69 202.914 1819.49 202.914C1783.29 202.914 1753.94 173.565 1753.94 137.361C1753.94 101.157 1783.29 71.8081 1819.49 71.8081C1855.69 71.8081 1885.03 101.157 1885.03 137.361Z" fill="#FFF700" stroke="black"/>
<path d="M1813.56 65.389C1830.87 69.4975 1841.58 86.8631 1837.47 104.176C1833.36 121.489 1816 132.193 1798.69 128.085C1781.38 123.976 1770.67 106.611 1774.78 89.2977C1778.89 71.9847 1796.25 61.2804 1813.56 65.389Z" fill="#FCF6E1" stroke="black"/>
<path d="M1856.39 185.475C1856.39 195.105 1848.58 202.914 1838.95 202.914C1829.32 202.914 1821.51 195.105 1821.51 185.475C1821.51 175.844 1829.32 168.036 1838.95 168.036C1848.58 168.036 1856.39 175.844 1856.39 185.475Z" fill="#FCF6E1" stroke="black"/>
</g>
<mask id="path-39-inside-1_2001_209" fill="white">
<path fill-rule="evenodd" clip-rule="evenodd" d="M362.444 135.125C348.231 141.54 335.809 154.384 337.502 178.042C337.567 178.94 336.471 179.476 335.764 178.887C316.581 162.909 296.061 156.428 280.137 163.616C264.836 170.523 256.939 188.623 256.84 211.661C256.836 212.455 255.925 212.925 255.231 212.498C244.913 206.155 233.667 204.337 224.242 208.591C206.383 216.653 201.822 243.464 214.056 268.476C226.289 293.488 250.684 307.23 268.543 299.169C272.883 297.21 276.438 294.143 279.157 290.264C279.587 289.651 280.551 289.681 280.946 290.331C305.653 330.889 342.365 353.749 367.567 342.373C386.287 333.923 393.925 308.717 389.758 278.21C389.623 277.227 390.897 276.666 391.576 277.414C414.179 302.261 437.97 319.255 449.873 313.882C466.275 306.479 467.717 274.679 455.34 237.031C455.026 236.078 456.209 235.291 457.032 235.896C468.009 243.969 479.625 246.914 488.897 242.729C506.272 234.885 508.837 204.97 494.624 175.911C480.411 146.852 454.804 129.653 437.428 137.496C427.159 142.132 422.063 154.477 422.546 169.798C422.578 170.798 421.214 171.258 420.597 170.447C399.974 143.313 377.175 128.475 362.444 135.125Z"/>
</mask>
<path fill-rule="evenodd" clip-rule="evenodd" d="M362.444 135.125C348.231 141.54 335.809 154.384 337.502 178.042C337.567 178.94 336.471 179.476 335.764 178.887C316.581 162.909 296.061 156.428 280.137 163.616C264.836 170.523 256.939 188.623 256.84 211.661C256.836 212.455 255.925 212.925 255.231 212.498C244.913 206.155 233.667 204.337 224.242 208.591C206.383 216.653 201.822 243.464 214.056 268.476C226.289 293.488 250.684 307.23 268.543 299.169C272.883 297.21 276.438 294.143 279.157 290.264C279.587 289.651 280.551 289.681 280.946 290.331C305.653 330.889 342.365 353.749 367.567 342.373C386.287 333.923 393.925 308.717 389.758 278.21C389.623 277.227 390.897 276.666 391.576 277.414C414.179 302.261 437.97 319.255 449.873 313.882C466.275 306.479 467.717 274.679 455.34 237.031C455.026 236.078 456.209 235.291 457.032 235.896C468.009 243.969 479.625 246.914 488.897 242.729C506.272 234.885 508.837 204.97 494.624 175.911C480.411 146.852 454.804 129.653 437.428 137.496C427.159 142.132 422.063 154.477 422.546 169.798C422.578 170.798 421.214 171.258 420.597 170.447C399.974 143.313 377.175 128.475 362.444 135.125Z" fill="#FFEF3D"/>
<path d="M422.546 169.798L421.535 169.809L422.546 169.798ZM420.597 170.447L419.789 171.026L420.597 170.447ZM337.502 178.042L338.512 177.992L337.502 178.042ZM335.764 178.887L335.116 179.633L335.764 178.887ZM455.34 237.031L454.377 237.316L455.34 237.031ZM389.758 278.21L390.76 278.099L389.758 278.21ZM391.576 277.414L390.826 278.062L391.576 277.414ZM279.157 290.264L279.996 290.833L279.157 290.264ZM280.946 290.331L280.08 290.823L280.946 290.331ZM256.84 211.661L257.851 211.685L256.84 211.661ZM255.231 212.498L254.704 213.331L255.231 212.498ZM338.512 177.992C337.679 166.355 340.318 157.445 344.858 150.67C349.405 143.884 355.902 139.174 362.883 136.023L362.004 134.227C354.772 137.491 347.952 142.411 343.158 149.565C338.357 156.73 335.632 166.071 336.493 178.091L338.512 177.992ZM280.576 164.514C295.959 157.571 316.042 163.746 335.116 179.633L336.411 178.14C317.12 162.072 296.163 155.286 279.698 162.718L280.576 164.514ZM257.851 211.685C257.95 188.793 265.796 171.186 280.576 164.514L279.698 162.718C263.876 169.859 255.928 188.452 255.828 211.638L257.851 211.685ZM224.681 209.49C233.708 205.415 244.583 207.109 254.704 213.331L255.758 211.665C245.243 205.201 233.627 203.258 223.803 207.693L224.681 209.49ZM214.967 268.065C208.93 255.721 207.057 242.972 208.862 232.358C210.668 221.74 216.129 213.35 224.681 209.49L223.803 207.693C214.496 211.894 208.747 220.94 206.866 231.997C204.985 243.057 206.948 256.219 213.144 268.888L214.967 268.065ZM268.104 298.27C259.551 302.131 249.343 300.813 239.682 295.372C230.025 289.932 221.004 280.408 214.967 268.065L213.144 268.888C219.34 281.556 228.634 291.41 238.697 297.078C248.757 302.745 259.676 304.268 268.982 300.067L268.104 298.27ZM278.319 289.695C275.69 293.444 272.268 296.39 268.104 298.27L268.982 300.067C273.498 298.029 277.185 294.842 279.996 290.833L278.319 289.695ZM367.127 341.475C354.955 346.969 339.855 344.26 324.593 334.991C309.347 325.732 294.101 310.01 281.813 289.838L280.08 290.823C292.498 311.209 307.961 327.197 323.549 336.663C339.12 346.12 354.977 349.153 368.006 343.272L367.127 341.475ZM388.755 278.322C390.824 293.471 389.953 307.243 386.283 318.24C382.614 329.232 376.173 337.392 367.127 341.475L368.006 343.272C377.681 338.905 384.419 330.236 388.208 318.886C391.995 307.54 392.858 293.456 390.76 278.099L388.755 278.322ZM449.434 312.984C446.761 314.19 443.318 314.186 439.19 312.998C435.068 311.811 430.369 309.472 425.287 306.162C415.126 299.545 403.595 289.153 392.327 276.766L390.826 278.062C402.161 290.522 413.826 301.051 424.187 307.799C429.366 311.172 434.26 313.627 438.653 314.892C443.04 316.155 447.034 316.26 450.312 314.781L449.434 312.984ZM454.377 237.316C460.541 256.064 463.242 273.297 462.389 286.718C461.531 300.201 457.12 309.514 449.434 312.984L450.312 314.781C459.028 310.847 463.539 300.558 464.409 286.879C465.282 273.136 462.516 255.645 456.303 236.746L454.377 237.316ZM488.457 241.83C479.67 245.796 468.467 243.08 457.63 235.111L456.433 236.681C467.552 244.857 479.579 248.031 489.336 243.627L488.457 241.83ZM493.713 176.323C500.754 190.72 503.617 205.287 502.598 217.174C501.576 229.088 496.691 238.114 488.457 241.83L489.336 243.627C498.478 239.5 503.563 229.647 504.614 217.378C505.668 205.082 502.706 190.161 495.535 175.5L493.713 176.323ZM437.867 138.395C446.101 134.678 456.452 136.827 466.65 143.676C476.826 150.51 486.671 161.925 493.713 176.323L495.535 175.5C488.365 160.838 478.3 149.124 467.774 142.055C457.271 135.001 446.131 132.472 436.988 136.598L437.867 138.395ZM423.558 169.787C423.079 154.62 428.135 142.788 437.867 138.395L436.988 136.598C426.182 141.476 421.047 154.334 421.535 169.809L423.558 169.787ZM362.883 136.023C369.784 132.908 378.772 134.746 388.781 140.948C398.757 147.13 409.524 157.52 419.789 171.026L421.406 169.869C411.048 156.24 400.103 145.644 389.841 139.286C379.612 132.948 369.835 130.692 362.004 134.227L362.883 136.023ZM421.535 169.809C421.535 169.816 421.535 169.82 421.535 169.822C421.534 169.823 421.534 169.824 421.534 169.824C421.534 169.824 421.534 169.824 421.534 169.824C421.534 169.825 421.534 169.825 421.534 169.825C421.534 169.825 421.534 169.825 421.534 169.825C421.534 169.825 421.533 169.826 421.532 169.828C421.525 169.836 421.505 169.855 421.47 169.866C421.434 169.878 421.411 169.875 421.407 169.874C421.406 169.873 421.408 169.874 421.412 169.876C421.415 169.879 421.413 169.878 421.406 169.869L419.789 171.026C420.412 171.846 421.407 171.989 422.16 171.737C422.91 171.486 423.589 170.787 423.558 169.787L421.535 169.809ZM336.493 178.091C336.493 178.097 336.493 178.1 336.493 178.102C336.493 178.104 336.493 178.105 336.493 178.105C336.492 178.105 336.492 178.106 336.491 178.108C336.488 178.114 336.477 178.126 336.456 178.136C336.436 178.146 336.421 178.146 336.418 178.146C336.418 178.146 336.419 178.146 336.42 178.147C336.422 178.147 336.419 178.147 336.411 178.14L335.116 179.633C336.523 180.805 338.637 179.74 338.512 177.992L336.493 178.091ZM456.303 236.746C456.299 236.735 456.3 236.733 456.3 236.737C456.3 236.741 456.299 236.744 456.299 236.743C456.301 236.739 456.311 236.719 456.342 236.698C456.373 236.678 456.401 236.672 456.413 236.672C456.415 236.672 456.417 236.672 456.418 236.672C456.418 236.673 456.419 236.673 456.419 236.673C456.419 236.673 456.42 236.673 456.422 236.674C456.424 236.675 456.428 236.677 456.433 236.681L457.63 235.111C456.809 234.507 455.828 234.626 455.177 235.06C454.524 235.496 454.06 236.351 454.377 237.316L456.303 236.746ZM390.76 278.099C390.759 278.085 390.76 278.082 390.76 278.085C390.759 278.086 390.759 278.087 390.759 278.088C390.758 278.089 390.758 278.09 390.758 278.09C390.758 278.088 390.768 278.076 390.791 278.065C390.815 278.055 390.829 278.057 390.827 278.057C390.825 278.057 390.822 278.056 390.818 278.054C390.814 278.051 390.817 278.052 390.826 278.062L392.327 276.766C390.967 275.27 388.491 276.394 388.755 278.322L390.76 278.099ZM279.996 290.833C280.002 290.824 280.008 290.82 280.013 290.818C280.021 290.814 280.034 290.811 280.048 290.811C280.063 290.812 280.072 290.816 280.074 290.817C280.075 290.817 280.075 290.818 280.075 290.818C280.075 290.818 280.075 290.818 280.076 290.818C280.076 290.818 280.076 290.818 280.076 290.819C280.077 290.819 280.078 290.821 280.08 290.823L281.813 289.838C281.023 288.54 279.148 288.513 278.319 289.695L279.996 290.833ZM255.828 211.638C255.828 211.641 255.827 211.643 255.827 211.644C255.827 211.645 255.827 211.645 255.827 211.645C255.827 211.646 255.827 211.646 255.827 211.646C255.827 211.646 255.827 211.646 255.827 211.646C255.827 211.646 255.827 211.646 255.827 211.646C255.827 211.646 255.827 211.646 255.827 211.646C255.825 211.648 255.819 211.656 255.806 211.663C255.793 211.669 255.781 211.671 255.775 211.671C255.772 211.671 255.771 211.671 255.769 211.67C255.768 211.67 255.764 211.669 255.758 211.665L254.704 213.331C256.056 214.163 257.845 213.264 257.851 211.685L255.828 211.638Z" fill="black" mask="url(#path-39-inside-1_2001_209)"/>
<path d="M267.051 328.386C265.563 323.484 266.468 317.615 269.154 312.535C271.838 307.458 276.268 303.232 281.75 301.568C292.808 298.213 304.117 303.552 307.091 313.352C310.065 323.152 303.629 333.875 292.571 337.23C287.007 338.919 281.342 339.139 276.715 337.717C272.104 336.3 268.529 333.258 267.051 328.386Z" fill="#00FFD9" stroke="black"/>
<path d="M467.081 255.991C455.828 209.038 423.382 171.595 408.566 158.742L359.019 127.606L346.001 139.111L351.042 180.393L358.651 301.064C396.767 326.769 399.891 278.897 396.688 251.747C420.896 286.374 481.147 314.681 467.081 255.991Z" fill="#00B2FF" stroke="black"/>
<path d="M446.881 132.919C454.639 120.748 471.095 132.93 477.924 141.17C479.885 143.535 484.288 149.958 480.078 152.346C474.27 155.64 466.473 138.124 455.998 139.754C445.522 141.384 447.972 165.899 441.07 173.446C432.839 182.446 424.808 176.629 408.935 161.247C393.552 146.339 350.893 114.807 361.978 164.046C370.846 203.437 365.982 355.902 361.26 385.08C341.153 235.236 286.56 197.76 280.269 212.974C273.978 228.189 280.664 249.119 264.599 265.999C245.139 286.447 211.535 275.736 190.895 254.636C164.917 228.078 189.793 189.682 207.131 217.22C224.47 244.758 238.326 254.478 250.005 252.791C261.683 251.103 268.891 234.683 256.504 190.686C244.116 146.69 286.904 141.067 308.002 158.224C323.204 170.588 345.134 219.528 345.134 219.528C328.474 182.195 313.927 135.373 344.384 121.836C382.455 104.915 418.456 170.904 430.814 172.565C444.236 174.369 437.184 148.134 446.881 132.919Z" fill="#00FFDD" stroke="black"/>
<path d="M688.83 147.94C688.83 154.16 686.033 160.638 681.653 165.563C677.273 170.489 671.362 173.807 665.18 173.807C652.73 173.807 642.638 163.714 642.638 151.265C642.638 138.815 652.73 128.723 665.18 128.723C671.458 128.723 677.383 130.448 681.727 133.709C686.057 136.96 688.83 141.746 688.83 147.94Z" fill="white" stroke="black"/>
<path d="M318.502 362.792C318.502 371.653 314.519 380.867 308.294 387.868C302.068 394.869 293.651 399.602 284.828 399.602C267.096 399.602 252.722 385.228 252.722 367.497C252.722 349.765 267.096 335.391 284.828 335.391C293.747 335.391 302.178 337.842 308.367 342.488C314.544 347.125 318.502 353.957 318.502 362.792Z" fill="white" stroke="black"/>
<path d="M764.565 61.9558C764.565 64.8925 763.242 67.968 761.157 70.3127C759.072 72.6578 756.277 74.2153 753.378 74.2153C747.496 74.2153 742.728 69.4469 742.728 63.5647C742.728 57.6825 747.496 52.9141 753.378 52.9141C756.372 52.9141 759.182 53.7375 761.231 55.2754C763.266 56.8037 764.565 59.0453 764.565 61.9558Z" fill="white" stroke="black"/>
<path d="M1651.18 213.337C1651.18 216.273 1649.85 219.349 1647.77 221.694C1645.68 224.039 1642.89 225.596 1639.99 225.596C1634.11 225.596 1629.34 220.828 1629.34 214.946C1629.34 209.063 1634.11 204.295 1639.99 204.295C1642.98 204.295 1645.79 205.118 1647.84 206.656C1649.88 208.185 1651.18 210.426 1651.18 213.337Z" fill="white" stroke="black"/>
<path d="M1046.79 233.047C1046.79 234.52 1046.13 236.08 1045.07 237.275C1044 238.47 1042.6 239.243 1041.16 239.243C1038.2 239.243 1035.81 236.847 1035.81 233.891C1035.81 230.935 1038.2 228.539 1041.16 228.539C1042.69 228.539 1044.11 228.961 1045.14 229.731C1046.15 230.491 1046.79 231.599 1046.79 233.047Z" fill="white" stroke="black"/>
</svg>
