<svg width="1920" height="996" viewBox="0 0 1920 996" fill="none" xmlns="http://www.w3.org/2000/svg">
<path d="M194.155 246.587C-83.5944 204.747 -386.225 289.59 -502.822 337.242L-570.771 909.713L1275.16 948.033L2440.41 804.78L2452.09 389.31L2383.8 255.884C2468.22 225.378 2582.95 182.574 2366.52 255.398C2095.99 346.429 1549.05 327.197 1374.62 279.75C1200.18 232.303 987.232 222.452 850.879 255.367C714.526 288.281 541.341 298.887 194.155 246.587Z" fill="black"/>
<path d="M198.966 768.341L198.1 768.806L198.986 769.232L249.519 793.548L185.155 794.996L184.451 795.012L184.699 795.672L201.941 841.58L155.006 812.877L154.526 812.584L154.291 813.094L131.215 863.036L120.044 815.287L119.883 814.601L119.288 814.979L64.9694 849.536L93.4742 801.242L93.9736 800.396L92.9956 800.49L28.421 806.714L85.5688 776.01L86.4343 775.545L85.5489 775.119L35.0158 750.803L99.3793 749.354L100.084 749.338L99.8361 748.679L82.5939 702.771L129.529 731.474L130.008 731.767L130.244 731.257L153.32 681.314L164.491 729.064L164.652 729.75L165.246 729.372L219.565 694.814L191.06 743.109L190.561 743.955L191.539 743.861L256.114 737.637L198.966 768.341Z" stroke="#00CCFF"/>
<path d="M1623.89 724.867C1624.91 720.049 1626.57 716.928 1628.74 714.979C1630.9 713.037 1633.62 712.206 1636.87 712.093C1640.14 711.98 1643.89 712.591 1648.08 713.499C1649.98 713.91 1651.96 714.381 1654.01 714.869C1654.22 714.919 1654.43 714.97 1654.65 715.02C1656.93 715.562 1659.3 716.12 1661.74 716.637C1666.65 717.676 1671.56 718.15 1676.07 718.584L1676.14 718.59C1680.64 719.022 1684.72 719.414 1688.07 720.274C1691.44 721.137 1693.96 722.45 1695.42 724.653C1696.88 726.851 1697.35 730.051 1696.33 734.863C1692.26 754.1 1673.37 766.397 1654.13 762.328C1644.46 760.283 1635.88 755.691 1630.23 749.229C1624.59 742.779 1621.86 734.455 1623.89 724.867Z" fill="#00FF66" stroke="black"/>
<path d="M-34.3345 372.501C-139.808 429.925 -174.628 531.818 -167.98 641.197C-153.125 885.596 27.5273 867.723 115.625 764.334C204.4 660.151 215.211 728.339 322.24 660.151C436.241 587.521 452.132 457.745 394.379 444.246C336.92 430.815 330.299 548.661 292.724 548.661C255.149 548.661 267.179 491.501 223.956 491.501C170.231 491.501 169.738 587.788 131.745 571.369C97.8927 556.74 118.247 498.113 115.625 444.246C113.004 390.378 71.1391 315.077 -34.3345 372.501Z" fill="#D8FF16" stroke="black"/>
<path d="M120.743 450.333C43.8372 451.032 -34.0316 531.131 -68.6973 569.293C-95.2064 627.263 -132.319 740.757 -68.6973 730.969C10.83 718.734 38.1118 600.067 109.651 600.067C171.175 600.067 188.4 672.161 257.277 642.702C311.447 619.533 322.714 582.694 360.4 580.654C441.116 576.284 424.197 605.997 514.211 586.771C604.226 567.545 591.991 480.152 550.916 472.287C509.842 464.421 473.137 529.966 432.936 547.444C392.736 564.923 385.201 524.569 353.108 516.882C314.205 507.563 270.386 598.132 226.69 576.284C182.993 554.436 216.875 449.459 120.743 450.333Z" fill="#00FF66" stroke="black"/>
<path d="M480.131 520.778C517.054 510.229 531.053 484.829 522.63 480.3C511.866 473.692 498.579 491.169 482.58 493.672C449.798 498.8 443.534 466.973 381.961 468.474C320.389 469.976 306.48 523.063 281.686 511.672C263.164 503.162 263.63 463.732 252.008 451.358C240.013 438.588 211.331 427.281 178.723 461.466C144.581 497.258 128.779 591.528 108.64 611.643C89.0238 631.235 56.0784 631.666 52.0737 586.613C48.069 541.56 -3.93762 475.066 -108.881 485.854C-192.835 494.485 -259.088 526.066 -281.719 540.778V864.189C-146.667 727.963 -165.457 639.885 -98.5177 576.469C-31.5786 513.053 21.5225 559.606 2.47491 624.807C-16.5727 690.009 38.583 749.94 98.4598 697.108C152.19 649.699 157.786 583.049 173.903 515.65C190.021 448.251 252.292 429.203 242.035 493.672C231.779 558.14 235.442 614.551 283.794 606.492C332.145 598.434 337.273 510.522 376.101 498.8C414.929 487.078 433.977 533.965 480.131 520.778Z" fill="white" stroke="black"/>
<path d="M1777.56 578.762C1712.79 572.039 1657.37 491.685 1637.77 452.349C1633.42 444.049 1616.22 412.221 1646.63 399.779C1677.04 387.337 1671.1 358.27 1723.79 354.637C1776.48 351.004 1805.01 381.692 1860.63 340.059C1905.13 306.752 1907.81 242.56 1903.6 214.627L1954.12 483.94C1920.74 564.671 1858.54 587.166 1777.56 578.762Z" fill="#FFDD0B" stroke="black"/>
<mask id="mask0_2001_112" style="mask-type:alpha" maskUnits="userSpaceOnUse" x="1629" y="215" width="326" height="366">
<path d="M1778.14 578.065C1713.59 571.366 1658.37 491.298 1638.84 452.102C1634.5 443.832 1617.36 412.117 1647.66 399.719C1677.97 387.321 1672.05 358.358 1724.56 354.738C1777.06 351.118 1805.49 381.697 1860.91 340.212C1905.24 307.023 1907.92 243.059 1903.72 215.226L1954.07 483.581C1920.8 564.025 1858.82 586.439 1778.14 578.065Z" fill="#FFDD0B" stroke="black"/>
</mask>
<g mask="url(#mask0_2001_112)">
<path d="M1692.57 540.343C1652.05 514.635 1642 441.603 1641.74 415.627L1646.2 313.218L1828.67 315.326L1918.98 222.996L1989.45 374.868L1942.45 605.304C1910.36 544.119 1887.33 411.738 1830.58 434.469C1790.5 450.52 1818.24 620.086 1692.57 540.343Z" fill="#FFDD0B" stroke="black"/>
<path d="M1712.37 494.856C1658.15 480.517 1649.31 413.683 1649.05 387.707L1732.81 327.517L1835.98 287.406L1924.96 195.346L1995.43 347.219L1948.43 577.654C1916.35 516.469 1868.16 385.568 1811.41 408.299C1771.34 424.35 1781.63 513.174 1712.37 494.856Z" fill="#FFDD0B" stroke="black"/>
</g>
<path d="M1777.56 578.762C1712.79 572.039 1657.37 491.685 1637.77 452.349C1633.42 444.049 1616.22 412.221 1646.63 399.779C1677.04 387.337 1671.1 358.27 1723.79 354.637C1776.48 351.004 1805.01 381.692 1860.63 340.059C1905.13 306.752 1907.81 242.56 1903.6 214.627L1954.12 483.94C1920.74 564.671 1858.54 587.166 1777.56 578.762Z" stroke="#FFDD0B"/>
<path d="M1241.91 317.016C1186.71 320.55 1135.14 353.524 1142.54 380.506C1153.04 418.776 1199.57 405.098 1250.58 407.283C1352.65 411.658 1398.64 539.39 1583.35 459.388C1741.25 390.998 1863.82 464.731 1919.28 483.856L1965.18 260.092C2032.12 195.067 2116.65 75.5727 1919.28 117.801C1672.57 170.586 1588.76 331.137 1493.82 349.176C1398.88 367.215 1320.19 312.007 1241.91 317.016Z" fill="#6BE9FF" stroke="black"/>
<path d="M1350.25 391.028C1350.25 397.567 1347.31 404.374 1342.7 409.55C1338.1 414.726 1331.89 418.214 1325.39 418.214C1312.3 418.214 1301.69 407.605 1301.69 394.519C1301.69 381.433 1312.3 370.824 1325.39 370.824C1331.98 370.824 1338.21 372.637 1342.78 376.065C1347.33 379.483 1350.25 384.515 1350.25 391.028Z" fill="#00FF66" stroke="black"/>
<path d="M1388.94 434.501C1388.94 438.112 1387.31 441.885 1384.76 444.759C1382.2 447.633 1378.77 449.552 1375.19 449.552C1367.97 449.552 1362.1 443.691 1362.1 436.462C1362.1 429.233 1367.97 423.372 1375.19 423.372C1378.86 423.372 1382.31 424.381 1384.83 426.272C1387.34 428.154 1388.94 430.917 1388.94 434.501Z" fill="#00FFAE" stroke="black"/>
<path d="M337.767 799.77C337.767 807.475 334.304 815.49 328.887 821.582C323.469 827.675 316.149 831.788 308.482 831.788C293.064 831.788 280.564 819.289 280.564 803.87C280.564 788.451 293.064 775.952 308.482 775.952C316.245 775.952 323.579 778.085 328.96 782.125C334.328 786.155 337.767 792.091 337.767 799.77Z" fill="#BBFF00" stroke="black"/>
<path d="M1067.5 410.474C1067.5 414.452 1065.71 418.606 1062.9 421.769C1060.08 424.933 1056.3 427.048 1052.36 427.048C1044.4 427.048 1037.94 420.592 1037.94 412.627C1037.94 404.662 1044.4 398.205 1052.36 398.205C1056.4 398.205 1060.19 399.315 1062.97 401.399C1065.73 403.474 1067.5 406.522 1067.5 410.474Z" fill="#BBFF00" stroke="black"/>
<path d="M1707.97 755.701C1702.94 760.437 1698.51 762.723 1694.41 763.24C1690.32 763.756 1686.49 762.52 1682.64 760.04C1678.78 757.555 1674.94 753.842 1670.85 749.457C1669 747.471 1667.1 745.353 1665.13 743.156C1664.93 742.93 1664.72 742.703 1664.52 742.475C1662.33 740.035 1660.06 737.506 1657.67 734.965C1652.87 729.869 1647.62 725.417 1642.78 721.321L1642.7 721.256C1637.88 717.176 1633.5 713.462 1630.33 709.794C1627.14 706.105 1625.25 702.537 1625.33 698.77C1625.41 695.01 1627.47 690.914 1632.49 686.182C1652.58 667.262 1684.2 668.208 1703.12 688.296C1712.62 698.379 1718.84 710.533 1720.18 722.507C1721.52 734.465 1717.99 746.262 1707.97 755.701Z" fill="#00FFDD" stroke="black"/>
<path d="M2037.13 347.543C2037.65 360.854 2027.58 374.217 2008.24 386.963C1988.95 399.671 1960.72 411.568 1925.59 422.014C1855.35 442.901 1757.72 457.918 1649.37 462.091C1541.01 466.265 1442.52 458.803 1370.87 443.381C1335.05 435.668 1305.99 425.977 1285.78 414.791C1265.51 403.57 1254.45 391.022 1253.94 377.711C1253.43 364.399 1263.49 351.037 1282.84 338.291C1302.12 325.583 1330.35 313.685 1365.48 303.24C1435.72 282.353 1533.35 267.336 1641.7 263.162C1750.06 258.989 1848.55 266.451 1920.2 281.873C1956.03 289.585 1985.08 299.277 2005.29 310.463C2025.56 321.684 2036.62 334.232 2037.13 347.543Z" stroke="#FFD000" stroke-width="2"/>
<path d="M2008.85 251.995C2013.67 263.966 2008.76 279.509 1995.04 297.592C1981.37 315.615 1959.17 335.872 1930.1 357.098C1871.99 399.542 1786.63 445.729 1687.79 485.576C1588.96 525.422 1495.43 551.358 1424.13 561.091C1388.47 565.959 1358.43 566.767 1336.08 563.266C1313.66 559.753 1299.33 551.967 1294.51 539.996C1289.68 528.025 1294.6 512.481 1308.31 494.399C1321.98 476.375 1344.19 456.119 1373.25 434.892C1431.37 392.448 1516.73 346.261 1615.56 306.415C1714.39 266.568 1807.92 240.633 1879.22 230.899C1914.88 226.031 1944.93 225.224 1967.27 228.725C1989.7 232.237 2004.02 240.024 2008.85 251.995Z" stroke="#FFD000" stroke-width="2"/>
<path d="M2019.77 279.084C2024.59 291.055 2019.68 306.598 2005.96 324.681C1992.29 342.704 1970.09 362.961 1941.02 384.187C1882.91 426.631 1797.55 472.819 1698.71 512.665C1599.88 552.511 1506.36 578.447 1435.05 588.181C1399.39 593.049 1369.35 593.856 1347 590.355C1324.58 586.843 1310.25 579.056 1305.43 567.085C1300.6 555.114 1305.52 539.57 1319.24 521.488C1332.91 503.464 1355.11 483.208 1384.17 461.981C1442.29 419.537 1527.65 373.35 1626.48 333.504C1725.31 293.658 1818.84 267.722 1890.14 257.988C1925.8 253.12 1955.85 252.313 1978.2 255.814C2000.62 259.326 2014.94 267.113 2019.77 279.084Z" stroke="#FFD000" stroke-width="2"/>
<path d="M2013.09 270.325C2020.54 282.771 2018.21 300.579 2007.03 322.432C1995.87 344.231 1976.05 369.759 1949.11 397.385C1895.23 452.625 1813.02 516.081 1715.27 574.635C1617.52 633.189 1522.78 675.718 1448.66 697.155C1411.58 707.876 1379.72 713.306 1355.24 712.854C1330.7 712.402 1313.89 706.054 1306.44 693.608C1298.99 681.162 1301.32 663.354 1312.5 641.5C1323.65 619.702 1343.48 594.173 1370.42 566.548C1424.3 511.308 1506.5 447.852 1604.25 389.298C1702.01 330.744 1796.74 288.215 1870.87 266.777C1907.94 256.056 1939.8 250.627 1964.29 251.078C1988.83 251.531 2005.63 257.879 2013.09 270.325Z" stroke="#FFD000" stroke-width="2"/>
<path d="M379.638 778.017C374.22 787.842 361.605 793.371 342.907 794.632C324.263 795.889 299.874 792.874 271.398 785.95C214.461 772.108 141.411 742.697 65.7662 700.983C-9.87902 659.27 -73.7343 613.186 -115.826 572.421C-136.877 552.033 -152.441 533.016 -161.328 516.578C-170.24 500.092 -172.295 486.472 -166.877 476.647C-161.46 466.822 -148.845 461.293 -130.146 460.033C-111.502 458.776 -87.1135 461.791 -58.6377 468.714C-1.70053 482.557 71.3491 511.967 146.994 553.681C222.639 595.395 286.495 641.479 328.586 682.244C349.637 702.631 365.202 721.648 374.088 738.087C383 754.572 385.056 768.192 379.638 778.017Z" stroke="#FFD000" stroke-width="2"/>
<path d="M451.26 530.559C449.321 541.571 438.573 550.78 420.091 557.828C401.678 564.85 375.921 569.593 344.631 571.89C282.067 576.482 197.614 571.276 106.117 555.165C14.6204 539.055 -66.5306 515.1 -123.763 489.414C-152.387 476.568 -174.975 463.312 -189.882 450.423C-204.845 437.486 -211.801 425.16 -209.862 414.148C-207.923 403.135 -197.175 393.927 -178.693 386.879C-160.28 379.857 -134.523 375.113 -103.233 372.817C-40.6685 368.225 43.7838 373.43 135.281 389.541C226.778 405.652 307.929 429.606 365.161 455.292C393.785 468.139 416.373 481.395 431.28 494.283C446.243 507.221 453.199 519.547 451.26 530.559Z" stroke="#00FFD9" stroke-width="2"/>
<path d="M346.377 600.4C343.783 608.843 335.399 615.29 321.97 619.553C308.577 623.804 290.405 625.797 268.702 625.508C225.308 624.931 168.032 615.237 107.178 596.539C46.3243 577.842 -6.51354 553.704 -42.745 529.817C-60.8665 517.87 -74.7842 506.017 -83.4804 494.979C-92.1994 483.912 -95.5167 473.87 -92.9227 465.427C-90.3288 456.984 -81.945 450.537 -68.5162 446.275C-55.1225 442.024 -36.9508 440.031 -15.2472 440.32C28.1461 440.897 85.4218 450.591 146.276 469.288C207.13 487.985 259.968 512.123 296.199 536.01C314.321 547.958 328.238 559.81 336.935 570.848C345.654 581.915 348.971 591.958 346.377 600.4Z" stroke="#FF6F00" stroke-width="2"/>
<path d="M1297.52 314.401C1244.61 317.465 1195.19 346.06 1202.28 369.459C1212.34 402.646 1256.94 390.784 1305.82 392.679C1403.64 396.473 1447.72 507.241 1624.75 437.864C1776.07 378.557 1893.55 442.497 1946.7 459.082L1990.69 265.037C2054.84 208.647 2135.86 105.024 1946.7 141.644C1710.25 187.419 1629.93 326.646 1538.94 342.289C1447.95 357.932 1372.54 310.057 1297.52 314.401Z" fill="#EDFF9A" stroke="black"/>
<path d="M1182.5 387.806C1182.5 395.511 1179.04 403.526 1173.62 409.618C1168.2 415.711 1160.88 419.824 1153.22 419.824C1137.8 419.824 1125.3 407.325 1125.3 391.906C1125.3 376.488 1137.8 363.988 1153.22 363.988C1160.98 363.988 1168.31 366.122 1173.69 370.161C1179.06 374.191 1182.5 380.127 1182.5 387.806Z" fill="#BBFF00" stroke="black"/>
<path d="M1331.8 362.38C1303.27 370.532 1292.45 390.16 1298.96 393.66C1307.28 398.766 1317.55 385.261 1329.91 383.327C1355.24 379.364 1360.08 403.959 1407.66 402.798C1455.24 401.638 1465.99 360.614 1485.15 369.417C1499.46 375.993 1499.1 406.463 1508.09 416.025C1517.36 425.893 1539.52 434.631 1564.72 408.214C1591.1 380.555 1603.31 307.707 1618.87 292.163C1634.03 277.023 1659.49 276.69 1662.59 311.505C1665.68 346.32 1705.87 397.705 1786.97 389.368C1851.84 382.698 1903.04 358.293 1920.53 346.925V97.0046C1784.33 155.604 1823.31 263.438 1778.96 319.344C1734.67 375.165 1683.52 331.052 1701.3 281.663C1724.09 218.381 1660.5 174.516 1614.23 215.343C1560.07 263.129 1578.28 313.703 1568.44 366.343C1555.5 435.568 1507.87 433.146 1515.79 383.327C1523.72 333.508 1516.93 285.936 1479.56 292.163C1442.2 298.391 1461.13 347.157 1410.71 362.38C1380.7 371.438 1367.47 352.19 1331.8 362.38Z" fill="#FF4800" stroke="black"/>
<path d="M1331.8 373.113C1303.27 381.265 1292.45 400.893 1298.96 404.393C1307.28 409.5 1317.55 395.994 1329.91 394.06C1355.24 390.097 1360.08 414.692 1407.66 413.532C1455.24 412.371 1465.99 371.347 1485.15 380.15C1499.46 386.727 1499.1 417.197 1508.09 426.758C1517.36 436.627 1539.52 445.364 1564.72 418.947C1591.1 391.289 1603.31 318.44 1618.87 302.897C1634.03 287.756 1659.49 287.423 1662.59 322.238C1665.68 357.054 1705.87 408.438 1786.97 400.101C1851.84 393.432 1903.04 369.027 1920.53 357.658V107.738C1816.17 213.009 1830.69 281.072 1778.96 330.077C1727.23 379.083 1686.2 343.109 1700.92 292.723C1715.63 242.338 1673.01 196.026 1626.74 236.853C1585.22 273.488 1580.9 324.993 1568.44 377.076C1555.99 429.16 1507.87 443.879 1515.79 394.06C1523.72 344.241 1520.89 300.649 1483.52 306.877C1446.16 313.104 1442.2 381.039 1412.19 390.097C1382.19 399.155 1367.47 362.923 1331.8 373.113Z" fill="#00FFD9" stroke="black"/>
<path d="M1747.32 281.611C1747.32 286.04 1745.32 290.661 1742.2 294.178C1739.07 297.696 1734.86 300.053 1730.47 300.053C1721.6 300.053 1714.41 292.865 1714.41 284C1714.41 275.134 1721.6 267.947 1730.47 267.947C1734.95 267.947 1739.18 269.18 1742.27 271.501C1745.35 273.812 1747.32 277.209 1747.32 281.611Z" fill="white" stroke="black"/>
<path d="M1712.58 432.319C1712.58 438.576 1709.77 445.09 1705.36 450.044C1700.96 454.998 1695.01 458.335 1688.79 458.335C1676.27 458.335 1666.12 448.184 1666.12 435.663C1666.12 423.141 1676.27 412.99 1688.79 412.99C1695.11 412.99 1701.07 414.726 1705.43 418.006C1709.79 421.276 1712.58 426.089 1712.58 432.319Z" fill="white" stroke="black"/>
<path d="M1801.66 396.665L1801.55 397.623L1802.4 397.168L1847.8 372.911L1814.49 421.16L1814.09 421.743L1814.77 421.927L1858.71 433.779L1811.91 453.038L1811.38 453.256L1811.67 453.752L1837.11 497.504L1795.02 480.188L1794.36 479.919L1794.33 480.626L1791.43 539.186L1770.14 492.318L1769.74 491.439L1769.25 492.272L1739.44 543.227L1746.77 484.65L1746.89 483.692L1746.04 484.147L1700.63 508.404L1733.94 460.155L1734.35 459.572L1733.66 459.388L1689.72 447.536L1736.52 428.277L1737.05 428.059L1736.77 427.563L1711.32 383.811L1753.41 401.127L1754.07 401.396L1754.1 400.689L1757 342.129L1778.29 388.997L1778.69 389.876L1779.18 389.042L1808.99 338.088L1801.66 396.665Z" fill="#00B2FF" stroke="black"/>
<path d="M1772.09 400.619L1772.21 401.577L1772.92 400.925L1810.88 366.147L1790.6 421.16L1790.35 421.824L1791.06 421.833L1836.57 422.395L1796.02 452.679L1795.56 453.022L1795.96 453.431L1831.48 489.489L1786.4 483.175L1785.7 483.076L1785.84 483.77L1797.59 541.214L1765.32 501.105L1764.71 500.353L1764.45 501.282L1748.23 558.045L1740.77 499.484L1740.65 498.527L1739.94 499.179L1701.99 533.957L1722.27 478.944L1722.51 478.28L1721.8 478.271L1676.29 477.709L1716.84 447.425L1717.3 447.082L1716.9 446.673L1681.39 410.615L1726.46 416.929L1727.16 417.028L1727.02 416.334L1715.28 358.89L1747.54 398.998L1748.15 399.751L1748.41 398.822L1764.63 342.059L1772.09 400.619Z" fill="#FF4800" stroke="black"/>
<path d="M1509.09 875.717L1508.12 875.725L1508.69 876.509L1520.38 892.753L1499.92 882.329L1499.29 882.008L1499.19 882.71L1496.87 900.457L1486.87 883.134L1486.58 882.637L1486.13 882.989L1470.33 895.249L1474.88 877.938L1475.06 877.254L1474.35 877.313L1451.47 879.231L1468.43 868.609L1469.25 868.096L1468.36 867.724L1447.23 858.882L1470.13 858.683L1471.1 858.674L1470.54 857.891L1458.85 841.646L1479.31 852.07L1479.94 852.391L1480.03 851.69L1482.36 833.942L1492.35 851.266L1492.64 851.762L1493.09 851.411L1508.9 839.151L1504.34 856.461L1504.16 857.146L1504.87 857.087L1527.75 855.169L1510.79 865.791L1509.97 866.303L1510.86 866.676L1532 875.518L1509.09 875.717Z" fill="#FFEF3D" stroke="black"/>
<path d="M1536.45 879.392L1539.03 898.896L1519.26 884.814L1518.87 884.538L1518.58 884.911L1507.07 899.479L1498.19 879.681L1498.03 879.325L1497.65 879.393L1476.29 883.224L1481.84 865.508L1481.98 865.054L1481.53 864.89L1458.76 856.505L1476.32 847.636L1476.9 847.34L1476.46 846.854L1460.95 829.684L1483.88 832.813L1484.53 832.901L1484.44 832.252L1481.87 812.749L1501.63 826.83L1502.02 827.107L1502.32 826.733L1513.82 812.165L1522.7 831.963L1522.86 832.32L1523.24 832.251L1544.6 828.42L1539.06 846.136L1538.91 846.59L1539.36 846.754L1562.13 855.139L1544.57 864.008L1543.99 864.304L1544.43 864.79L1559.94 881.96L1537.01 878.831L1536.36 878.743L1536.45 879.392Z" fill="#FF9900" stroke="black"/>
<path d="M650.568 257.425C692.387 255.714 738.906 295.023 756.767 316.932C788.537 355.905 796.008 408.398 761.162 404.807C717.604 400.319 699.55 336.563 660.666 338.507C627.227 340.18 619.824 379.833 581.587 365.693C551.515 354.573 544.363 333.724 523.851 334.771C486.214 336.693 489.864 350.281 440.417 342.277C390.969 334.274 395.244 286.442 417.355 281.05C439.466 275.659 461.198 310.286 483.523 318.693C505.848 327.1 508.846 304.962 526.081 299.912C553.721 291.811 573.251 341.825 596.407 328.762C619.563 315.699 598.294 259.563 650.568 257.425Z" fill="#00FF66" stroke="black"/>
<path d="M706.269 322.077C706.269 329.782 702.806 337.797 697.389 343.89C691.971 349.982 684.651 354.095 676.984 354.095C661.566 354.095 649.066 341.596 649.066 326.178C649.066 310.759 661.566 298.26 676.984 298.26C684.747 298.26 692.081 300.393 697.462 304.433C702.83 308.463 706.269 314.399 706.269 322.077Z" fill="white" stroke="black"/>
<path d="M285.111 309.214C285.111 313.192 283.321 317.346 280.509 320.509C277.695 323.673 273.912 325.788 269.972 325.788C262.007 325.788 255.551 319.332 255.551 311.367C255.551 303.402 262.007 296.945 269.972 296.945C274.008 296.945 277.806 298.055 280.582 300.139C283.345 302.214 285.111 305.262 285.111 309.214Z" fill="#FF4800" stroke="black"/>
<path d="M1677.38 740.412C1677.38 744.39 1675.59 748.544 1672.78 751.707C1669.96 754.871 1666.18 756.986 1662.24 756.986C1654.28 756.986 1647.82 750.53 1647.82 742.565C1647.82 734.6 1654.28 728.144 1662.24 728.144C1666.28 728.144 1670.07 729.253 1672.85 731.337C1675.61 733.412 1677.38 736.46 1677.38 740.412Z" fill="#BBFF00" stroke="black"/>
<path d="M89.3658 385.924C89.3658 396.513 84.6081 407.516 77.1755 415.875C69.7424 424.234 59.6865 429.893 49.1358 429.893C27.9496 429.893 10.7749 412.718 10.7749 391.532C10.7749 370.346 27.9496 353.171 49.1358 353.171C59.782 353.171 69.8528 356.096 77.2489 361.649C84.6323 367.192 89.3658 375.362 89.3658 385.924Z" fill="#FF4800" stroke="black"/>
<path d="M1554.74 831.079C1554.74 837.84 1551.7 844.877 1546.94 850.227C1542.18 855.578 1535.76 859.186 1529.03 859.186C1515.5 859.186 1504.53 848.217 1504.53 834.686C1504.53 821.155 1515.5 810.186 1529.03 810.186C1535.85 810.186 1542.29 812.06 1547.01 815.605C1551.72 819.139 1554.74 824.344 1554.74 831.079Z" fill="white" stroke="black"/>
<path d="M1522.16 852.153C1522.16 855.641 1520.59 859.289 1518.12 862.067C1515.65 864.846 1512.33 866.7 1508.88 866.7C1501.89 866.7 1496.23 861.036 1496.23 854.05C1496.23 847.064 1501.89 841.4 1508.88 841.4C1512.43 841.4 1515.76 842.376 1518.19 844.203C1520.62 846.021 1522.16 848.69 1522.16 852.153Z" fill="#FF4800" stroke="black"/>
<path d="M1705.38 809.577C1711.29 805.104 1720.5 805.707 1730.9 810.855C1741.24 815.973 1752.45 825.457 1762.04 838.121C1771.62 850.785 1777.71 864.153 1779.82 875.496C1781.95 886.904 1780.03 895.933 1774.12 900.406C1768.21 904.879 1759 904.276 1748.6 899.128C1738.26 894.01 1727.04 884.527 1717.46 871.862C1707.87 859.198 1701.79 845.83 1699.67 834.488C1697.54 823.079 1699.47 814.051 1705.38 809.577Z" stroke="#FFD000" stroke-width="2"/>
<path d="M1749.08 798.805C1749.64 798.898 1750.23 799.253 1750.83 800.023C1751.44 800.799 1752.01 801.937 1752.51 803.451C1753.52 806.476 1754.19 810.789 1754.48 816.116C1755.06 826.753 1754.12 841.207 1751.51 856.945C1748.9 872.683 1745.11 886.664 1741.12 896.541C1739.12 901.488 1737.09 905.353 1735.17 907.89C1734.2 909.16 1733.29 910.054 1732.47 910.592C1731.65 911.126 1730.98 911.271 1730.42 911.178C1729.86 911.085 1729.27 910.73 1728.66 909.96C1728.06 909.184 1727.49 908.046 1726.99 906.532C1725.98 903.507 1725.31 899.193 1725.02 893.867C1724.44 883.23 1725.37 868.776 1727.99 853.038C1730.6 837.3 1734.39 823.319 1738.38 813.442C1740.38 808.495 1742.41 804.63 1744.33 802.092C1745.3 800.823 1746.21 799.929 1747.03 799.391C1747.85 798.857 1748.52 798.712 1749.08 798.805Z" stroke="#FF4800" stroke-width="2"/>
</svg>
